<svg width="264" height="347" viewBox="0 0 264 347" fill="none" xmlns="http://www.w3.org/2000/svg">
<g clip-path="url(#clip0_11_806)">
<path d="M177.217 31.6747C179.378 31.7437 181.564 31.6462 183.701 31.9183C186.694 32.3 189.654 32.9538 192.627 33.5061C193.58 33.6848 194.715 33.636 195.437 34.1518C205.433 41.2867 214.724 49.116 220.195 60.5108C222.758 65.8467 224.542 71.4142 225.085 77.3593C225.588 82.8374 227.567 87.9012 229.465 93.0179C231.509 98.5285 233.415 104.145 234.692 109.87C235.812 114.894 235.848 120.1 234.859 125.29C234.161 128.956 233.983 132.721 233.589 136.445C233.427 138 233.257 139.555 233.188 141.115C232.884 148.298 234.384 155.214 236.44 162.024C238.001 167.198 239.875 172.278 240.702 177.662C241.347 181.849 240.516 185.719 238.658 189.443C237.304 192.16 235.929 194.836 235.572 197.963C235.041 202.612 236.598 206.539 239.275 210.141C241.517 213.158 244.028 215.993 246.116 219.112C248.72 223.002 250.082 227.436 250.597 232.082C251.222 237.69 251.716 243.314 252.232 248.934C252.479 251.639 252.645 254.348 252.848 257.056" stroke="#5C5C5C" stroke-linecap="round" stroke-linejoin="round"/>
<path d="M134.839 26.3955C134.551 23.3661 135.301 20.6454 137.495 18.4972C138.886 17.1368 141.343 17.2261 143.351 18.4809C144.069 18.9276 144.758 19.4149 145.488 19.9063C146.303 19.4352 147.118 19.1997 147.585 18.6596C150.569 15.1916 154.089 16.284 157.54 17.486C163.846 19.6829 168.826 23.8778 173.579 28.4178C178.664 33.2746 183.665 38.2492 189.034 42.7811C193.572 46.6105 198.499 50.0013 203.394 53.3759C210.089 57.989 214.817 64.2508 218.54 71.2923C222.952 79.6415 225.568 88.6363 227.547 97.8585C229.116 105.176 229.96 112.551 229.875 119.998C229.826 124.197 229.177 128.396 228.711 132.587C227.705 141.63 226.72 150.67 227.097 159.795C227.3 164.7 226.529 169.472 224.639 173.995C223.228 177.37 221.423 180.586 220.045 183.973C218.779 187.079 217.534 190.255 216.861 193.52C216.354 195.985 216.602 198.653 216.796 201.211C217.133 205.67 219.063 209.715 220.693 213.771C222.113 217.308 221.784 220.695 220.994 224.151C220.385 226.823 219.534 229.438 218.792 232.078" stroke="#5C5C5C" stroke-linecap="round" stroke-linejoin="round"/>
<path d="M188.166 121.216C190.802 125.407 192.696 129.96 194.147 134.65C194.589 136.075 194.277 138.106 193.547 139.442C192.022 142.244 190.08 144.843 188.129 147.381C186.974 148.883 185.562 150.239 184.086 151.441C181.118 153.862 179.451 156.989 178.405 160.599C177.436 163.949 176.284 167.246 175.181 170.552C173.036 176.984 167.902 179.396 161.798 179.591C155.464 179.79 149.515 181.406 143.562 183.177C137.584 184.952 131.651 186.669 125.301 186.45C123.013 186.369 120.71 187.108 118.407 187.169C114.319 187.278 110.166 187.522 106.257 185.955C104.752 185.354 103.301 184.505 102.003 183.526C97.9355 180.46 98.4586 176.359 101.208 172.002C103.053 169.074 105.799 166.97 108.666 165.062C109.011 164.834 109.217 164.4 109.485 164.063" stroke="#5C5C5C" stroke-linecap="round" stroke-linejoin="round"/>
<path d="M247.779 163.449C249.072 159.352 249.762 155.137 249.356 150.865C248.878 145.768 247.953 140.725 246.351 135.836C243.732 127.844 241.217 119.815 238.403 111.893C236.469 106.443 235.147 100.855 234.039 95.2148C233.468 92.2951 233.265 89.2738 233.212 86.2891C233.095 79.7958 233.127 73.2943 233.188 66.797C233.257 59.4996 230.398 53.518 225.045 48.7465C217.547 42.0583 208.682 37.8918 199.107 35.1223" stroke="#5C5C5C" stroke-linecap="round" stroke-linejoin="round"/>
<path d="M48.2581 54.0094C49.5152 55.1139 48.2783 56.1332 47.9945 57.0347C46.8509 60.6651 45.3423 64.1859 44.2514 67.8285C43.5661 70.1147 43.343 72.5431 42.9943 74.9228C42.6212 77.477 41.6804 79.8445 40.0988 81.7897C37.4831 85.0059 36.2138 88.2505 36.9843 92.6078C37.8968 97.7894 36.2057 102.748 33.8536 107.41C30.9825 113.095 29.4212 119.076 29.8105 125.48C30.0214 128.936 30.3823 132.384 30.5972 135.836C30.7635 138.483 30.3053 141.005 29.4658 143.576C28.2249 147.381 28.5047 151.413 29.0359 155.324C29.6807 160.05 30.2769 164.757 30.2323 169.545C30.2079 171.981 30.3701 174.43 30.6418 176.85C30.8527 178.718 32.0531 180.119 33.4481 181.321C36.4288 183.884 39.9447 185.48 43.5904 186.791C47.9296 188.355 52.3864 189.378 56.9567 190.125C62.3016 190.998 67.6343 191.088 72.9832 190.815C75.8341 190.673 78.6566 189.808 81.5034 189.711C84.3989 189.609 87.3147 190.024 90.2183 190.263C92.1161 190.418 94.0059 190.661 95.8957 190.864" stroke="#5C5C5C" stroke-linecap="round" stroke-linejoin="round"/>
<path d="M153.29 89.5418C157.455 89.221 161.45 89.7449 164.824 92.4169C166.389 93.6555 167.792 95.1418 169.086 96.6686C172.257 100.405 175.392 104.177 178.417 108.035C183.056 113.948 185.072 120.575 183.725 128.128C182.874 132.9 180.457 136.794 176.758 139.628C172.216 143.109 169.722 147.718 167.881 152.895C167.395 154.268 166.827 155.612 166.263 156.956C165.521 158.727 164.365 160.03 162.658 161.086C160.594 162.365 158.866 164.18 156.932 165.679C154.324 167.693 151.603 167.746 148.61 166.337C143.74 164.038 138.728 162.04 133.841 159.766C132.174 158.991 130.714 157.772 129.161 156.757" stroke="#5C5C5C" stroke-linecap="round" stroke-linejoin="round"/>
<path d="M130.581 42.0298C134.32 44.7993 138.42 46.3303 143.148 46.5577C148.931 46.8379 154.556 47.7963 159.41 51.5241C162.346 53.7779 163.425 58.4316 162.841 61.729C161.977 66.5777 161.717 71.5076 162.695 76.3278C163.343 79.5278 165.846 81.5257 168.688 83.0648C171.312 84.482 173.989 85.9927 175.152 88.949C176.138 91.4504 177.062 94.0291 177.569 96.6605C178.628 102.183 180.826 107.239 183.555 112.051C185.445 115.385 187.862 118.423 189.971 121.639C190.579 122.565 190.769 123.787 191.447 124.644C192.955 126.552 194.65 128.315 196.447 129.968C196.865 130.91 197.258 131.86 197.7 132.79C199.14 135.807 199.046 138.772 197.505 141.732C197.092 142.524 196.828 143.389 196.524 144.148C199.127 145.72 200.904 143.567 203.613 143.502C204.091 144.246 204.809 145.362 205.247 146.049C208.58 145.992 209.16 143.896 210.069 142.134C210.223 141.838 210.466 141.59 210.669 141.318" stroke="#5C5C5C" stroke-linecap="round" stroke-linejoin="round"/>
<path d="M195.668 216.647C195.38 221.974 198.049 226.129 200.908 230.275C202.777 232.992 204.578 235.818 205.952 238.807C208.13 243.538 207.42 248.431 205.79 253.19C204.205 257.811 203.008 262.457 203.138 267.411C203.207 270.047 203.345 272.808 202.668 275.302C201.548 279.444 198.466 282.185 194.886 284.508C189.005 288.321 182.428 290.465 176 292.991C170.615 295.106 165.375 297.498 160.809 301.133C159.957 301.811 159.308 302.737 158.562 303.549" stroke="#5C5C5C" stroke-linecap="round" stroke-linejoin="round"/>
<path d="M201.548 162.231C204.115 161.147 206.662 160.002 209.262 159.003C211.456 158.162 213.735 157.553 215.933 156.717C216.679 156.432 217.283 155.783 217.964 155.291C220.223 164.501 219.185 170.471 215.738 180.298C213.881 185.589 211.849 190.824 210.097 196.147C208.434 201.207 207.931 206.47 208.475 211.769C208.945 216.35 210.73 220.573 212.956 224.533C214.615 227.481 216.756 230.157 218.775 233.089C218.654 234.38 218.516 235.867 218.378 237.357" stroke="#5C5C5C" stroke-linecap="round" stroke-linejoin="round"/>
<path d="M216.147 159.592C215.405 162.365 214.805 165.191 213.889 167.908C211.679 174.438 209.164 180.862 207.072 187.425C205.231 193.203 204.476 199.116 205.105 205.288C205.762 211.717 206.914 217.962 209.282 223.948C211.679 230.003 214.821 235.716 220.268 239.501C223.155 241.507 226.663 242.636 229.944 244.045C234.554 246.023 239.032 248.187 243.144 251.131C246.372 253.442 249.847 255.411 253.253 257.556C254.389 269.3 257.305 280.702 261.571 291.776" stroke="#5C5C5C" stroke-linecap="round" stroke-linejoin="round"/>
<path d="M86.3779 295.833C85.5993 290.871 84.4151 286.006 81.8765 281.645C79.8407 278.144 77.4724 274.843 75.2177 271.472C73.5307 268.95 71.9897 266.396 71.3043 263.363C71.13 262.587 70.25 261.864 69.5281 261.336C62.188 255.984 53.8868 252.711 45.2004 250.384C39.9771 248.987 34.6931 247.761 29.3847 246.733C22.1663 245.332 14.8383 244.719 7.4942 244.484C5.13401 244.411 2.76572 244.597 0.397423 244.666" stroke="#5C5C5C" stroke-linecap="round" stroke-linejoin="round"/>
<path d="M196.682 166.292C196.005 167.579 195.242 168.826 194.667 170.158C190.737 179.266 185.583 187.741 181.126 196.578C179.342 200.115 177.691 203.887 176.929 207.737C175.676 214.08 177.521 219.591 183.072 223.578C186.937 226.356 191.053 228.537 195.68 229.58C197.079 229.897 198.641 229.503 200.129 229.438" stroke="#5C5C5C" stroke-linecap="round" stroke-linejoin="round"/>
<path d="M91.6498 117.765C88.1946 124.254 88.3041 131.166 89.6789 138.057C91.3943 146.658 92.8055 155.238 92.7285 164.059C92.6758 170.065 94.7967 175.644 97.5908 180.879C98.7344 183.023 100.64 184.749 101.962 186.816C103.933 189.89 107.352 191.4 109.55 194.267C111.874 197.297 114.737 199.908 117.178 202.856C121.383 207.932 125.532 213.061 129.502 218.32C130.366 219.461 130.763 221.26 130.719 222.734C130.536 229.032 130.11 235.322 129.77 241.617C129.502 246.624 129.173 251.631 128.995 256.642C128.95 257.917 129.364 259.212 129.567 260.5" stroke="#5C5C5C" stroke-linecap="round" stroke-linejoin="round"/>
<path d="M140.313 37.969C141.867 38.3751 143.432 39.1548 144.977 39.1223C151.117 38.9842 156.81 40.3893 161.324 44.5516C164.296 47.2927 166.673 50.7323 169.07 54.0378C171.985 58.058 174.382 62.4844 177.48 66.3462C182.152 72.1695 187.116 77.7329 192.554 82.9186C198.742 88.819 204.545 95.1539 210.223 101.562C216.419 108.555 220.45 116.847 222.539 125.911C223.674 130.845 224.582 135.957 223.65 141.119" stroke="#5C5C5C" stroke-linecap="round" stroke-linejoin="round"/>
<path d="M192.221 82.4353C191.074 80.3359 190.116 78.1024 188.742 76.1654C181.714 66.2366 174.658 56.324 167.447 46.5252C164.491 42.509 161.117 38.8015 156.944 35.9345C153.509 33.5751 149.945 33.1325 146.206 35.1426C145.934 35.2888 145.792 35.6665 145.589 35.9386" stroke="#5C5C5C" stroke-linecap="round" stroke-linejoin="round"/>
<path d="M84.7558 112.283C84.6503 117.728 85.8791 123.024 86.8483 128.311C88.6489 138.142 89.0949 148.03 88.7624 157.963C88.5921 163.023 88.7624 167.969 90.4129 172.793C90.5102 173.074 90.2994 173.463 90.2304 173.801" stroke="#5C5C5C" stroke-linecap="round" stroke-linejoin="round"/>
<path d="M135.041 39.9994C138.083 43.5486 142.134 44.4785 146.591 44.9415C154.101 45.7212 160.647 48.6084 165.72 54.5657C167.537 56.6977 167.261 58.7849 166.62 60.9006C164.649 67.398 166.077 73.1035 170.335 78.1593C175.015 83.7186 177.513 90.3256 179.865 97.0504C182.484 104.539 185.068 112.039 189.756 118.597C192.116 121.899 195.173 123.921 199.115 124.636C199.407 124.689 199.784 124.262 200.121 124.059" stroke="#5C5C5C" stroke-linecap="round" stroke-linejoin="round"/>
<path d="M216.553 156.952C215.742 158.71 215.239 160.721 214.063 162.186C210.255 166.917 205.535 170.499 199.963 173.07C197.258 174.316 194.561 176.03 192.529 178.166C190.51 180.286 189.553 183.185 189.533 186.393C189.476 195.079 191.698 203.23 194.383 211.392C197.501 220.87 203.604 227.712 211.691 233.093C213.033 233.986 214.392 234.855 215.746 235.733" stroke="#5C5C5C" stroke-linecap="round" stroke-linejoin="round"/>
<path d="M59.6129 227.002C62.7882 233.751 68.2547 238.535 73.5631 243.489C75.757 245.535 77.7847 247.879 79.419 250.392C81.9049 254.218 85.1005 256.967 89.1963 258.916C94.8372 261.6 100.527 264.228 105.438 268.215C111.598 273.218 116.971 278.895 120.828 285.896C121.351 286.847 121.655 287.919 122.06 288.934" stroke="#5C5C5C" stroke-linecap="round" stroke-linejoin="round"/>
<path d="M137.88 39.5933C139.417 40.8441 141.193 41.1568 143.152 41.2542C149.758 41.5872 156.113 43.1872 161.547 46.9881C165.408 49.6886 167.638 53.9484 169.99 58.0296C171.701 61.0062 171.961 64.3158 172.618 67.4386C174.025 74.1309 176.572 80.275 179.634 86.3013C182.703 92.3438 185.453 98.5529 188.632 104.535C190.623 108.287 193.053 111.832 196.487 114.512" stroke="#5C5C5C" stroke-linecap="round" stroke-linejoin="round"/>
<path d="M37.3088 151.47C38.8619 150.455 40.3178 149.188 42.0048 148.505C43.3309 147.969 45.0219 147.791 46.417 148.087C50.6466 148.981 54.8682 150.008 58.9843 151.32C62.7841 152.53 65.9797 154.958 69.3172 157.066C69.2726 157.232 69.228 157.399 69.1834 157.565C67.4112 157.902 65.6512 158.455 63.8669 158.54C57.8529 158.824 51.8916 158.658 46.2142 156.168C44.1257 155.255 41.8669 154.735 39.746 153.886C36.9681 152.773 35.8042 151.547 37.9819 148.063C40.0826 144.7 42.9537 141.923 47.2442 141.565C48.7771 141.435 50.3506 141.797 51.9038 141.927C53.5259 142.065 55.221 142.556 56.7539 142.252C59.1425 141.777 60.9025 142.674 62.6503 143.961C66.3853 146.719 69.0293 150.463 71.7788 154.109" stroke="#5C5C5C" stroke-linecap="round" stroke-linejoin="round"/>
<path d="M214.12 162.434C212.972 165.074 211.889 167.746 210.661 170.349C206.954 178.211 202.874 185.898 199.894 194.101C198.118 198.994 196.812 203.96 196.264 209.138C196.126 210.429 195.867 211.713 195.664 212.996" stroke="#5C5C5C" stroke-linecap="round" stroke-linejoin="round"/>
<path d="M105.032 304.361C107.125 297.555 105.032 291.634 101.18 286.087C96.6986 279.63 90.3845 275.277 83.9528 271.054C80.003 268.459 76.1099 265.779 72.1803 263.156C72.0383 263.062 71.7829 263.143 71.5801 263.143" stroke="#5C5C5C" stroke-linecap="round" stroke-linejoin="round"/>
<path d="M54.341 190.048C55.6265 190.791 56.8269 191.912 58.2057 192.221C66.0162 193.955 69.8647 199.416 72.2006 206.49C73.4618 210.312 74.7432 214.137 76.2802 217.849C77.7725 221.442 80.5504 224.058 83.7501 226.173C85.6155 227.408 86.3982 227.026 87.6188 225.191C90.1371 221.406 92.1405 217.426 93.3043 213C93.9086 210.71 94.7156 208.44 95.7416 206.308C97.3312 203.01 100.304 201.089 103.406 199.384" stroke="#5C5C5C" stroke-linecap="round" stroke-linejoin="round"/>
<path d="M63.0599 49.1363C60.6551 46.7891 59.9698 43.845 59.9982 40.6085C60.0063 39.5852 59.7792 38.5578 59.6535 37.4939C57.9583 36.9862 56.4619 36.5355 55.0264 36.105C49.499 39.0938 45.1598 49.9607 47.8566 53.1647C46.198 56.5677 44.5394 59.8367 43.0065 63.1585C41.9642 65.4163 40.7477 67.6782 40.2489 70.0741C39.7784 72.3441 40.0988 74.7928 40.1759 77.1603C40.2002 77.9115 40.553 78.6506 40.7558 79.3937" stroke="#5C5C5C" stroke-linecap="round" stroke-linejoin="round"/>
<path d="M171.742 61.928C173.433 64.9737 175.124 68.0193 176.811 71.065C181.998 80.4252 187.955 89.2901 194.042 98.0696C195.206 99.7508 196.341 101.452 197.493 103.146" stroke="#5C5C5C" stroke-linecap="round" stroke-linejoin="round"/>
<path d="M211.281 284.869C207.834 285.275 204.391 285.714 200.94 286.079C197.396 286.453 194.516 288.223 191.828 290.363C189.35 292.337 186.978 294.444 184.512 296.43C182.497 298.05 181.454 299.939 182.497 302.53C184.188 306.749 182.363 310.347 180.453 313.896C177.699 319.017 174.195 323.739 172.362 329.335C171.904 330.74 171.543 332.174 171.138 333.595" stroke="#5C5C5C" stroke-linecap="round" stroke-linejoin="round"/>
<path d="M84.3502 41.2177C85.2951 38.6472 86.6618 36.1375 87.0511 33.4817C87.343 31.4838 86.6253 29.2179 85.9156 27.228C84.8288 24.1743 84.0664 21.1164 83.9123 17.8678C83.8352 16.2353 83.5189 14.5866 83.1093 12.9988C82.2131 9.51865 79.8083 7.50446 76.2396 7.11462C75.0311 6.98467 73.8064 6.96843 72.5899 6.90346" stroke="#5C5C5C" stroke-linecap="round" stroke-linejoin="round"/>
<path d="M141.327 249.133C142.41 251.298 143.712 253.385 144.531 255.647C146.992 262.449 148.189 269.511 148.209 276.747C148.217 280.199 148.12 283.651 147.986 287.102C147.966 287.655 147.479 288.187 147.211 288.727" stroke="#5C5C5C" stroke-linecap="round" stroke-linejoin="round"/>
<path d="M130.986 222.941C132.203 226.121 133.391 229.312 134.64 232.48C136.643 237.564 138.898 242.563 140.646 247.736C141.838 251.261 142.544 254.989 143.107 258.685C144.081 265.089 144.77 271.537 145.589 277.965C146.056 281.62 146.672 285.263 146.952 288.934C147.11 291.009 146.749 293.129 146.595 295.224C146.177 300.926 145.285 306.57 143.095 311.853C140.557 317.973 137.763 323.999 134.79 329.924C131.955 335.577 128.752 341.047 125.71 346.598" stroke="#5C5C5C" stroke-linecap="round" stroke-linejoin="round"/>
<path d="M101.585 5.48215C104.055 9.53488 103.398 13.7419 102.437 18.0789C100.876 25.1164 97.3921 31.0655 92.9029 36.5761C91.3375 38.4969 89.7884 40.5679 89.6221 43.2481" stroke="#5C5C5C" stroke-linecap="round" stroke-linejoin="round"/>
<path d="M80.0922 98.6788C78.8066 104.295 77.2616 109.87 76.3086 115.543C75.2015 122.126 74.4634 128.782 73.8876 135.438C73.6686 137.968 74.2201 140.595 74.6662 143.137C74.946 144.725 75.8544 146.097 77.4562 146.8" stroke="#5C5C5C" stroke-linecap="round" stroke-linejoin="round"/>
<path d="M128.553 41.2177C126.497 41.3923 125.001 42.4887 123.443 43.8085C118.893 47.6663 114.157 51.3008 109.493 55.0246C107.011 57.0063 104.379 58.7565 102.737 61.6884C101.634 63.6539 101.366 65.7574 100.766 67.8163C100.543 68.5757 100.235 69.3066 99.9631 70.0538" stroke="#5C5C5C" stroke-linecap="round" stroke-linejoin="round"/>
<path d="M47.8525 157.764C49.7585 161.837 48.5338 165.305 45.8371 168.534C44.3528 170.308 42.7753 172.054 41.6155 174.032C39.4621 177.711 40.6179 180.18 42.8077 183.327C44.2514 185.402 46.5589 186.235 48.8623 187.019C49.8842 187.364 50.8332 187.92 51.9606 188.444C52.2201 192.602 52.1958 196.643 52.7919 200.59C53.5056 205.305 54.6776 209.958 55.7969 214.604C56.2673 216.549 57.1148 218.401 57.7921 220.297" stroke="#5C5C5C" stroke-linecap="round" stroke-linejoin="round"/>
<path d="M124.092 17.0556C125.576 17.4251 125.674 18.8221 126.1 19.9063C127.126 22.5134 128.042 25.1651 129.149 28.1945C130.126 27.8778 131.156 27.5082 132.207 27.2159C134.024 26.7123 135.832 26.0951 137.686 25.8311C139.555 25.5672 141.489 25.7052 143.148 26.8098C146.344 28.9377 149.62 31.0006 153.501 31.4107C156.376 31.7153 159.308 31.4716 162.212 31.4716C166.198 31.4716 170.189 31.4798 174.175 31.4635C174.852 31.4635 175.526 31.3376 176.203 31.2686" stroke="#5C5C5C" stroke-linecap="round" stroke-linejoin="round"/>
<path d="M57.9908 219.083C58.1935 220.435 58.2909 221.816 58.6194 223.14C59.5561 226.9 59.3534 230.73 59.1587 234.514C58.7897 241.641 60.5172 247.883 65.4404 253.247C67.2653 255.237 68.49 257.787 69.9336 260.114C70.1648 260.488 70.0918 261.048 70.1607 261.523" stroke="#5C5C5C" stroke-linecap="round" stroke-linejoin="round"/>
<path d="M141.733 253.803C139.977 254.482 138.176 255.07 136.473 255.862C135.187 256.459 133.736 257.076 132.86 258.108C129.186 262.445 124.246 264.264 119.035 265.832C115.706 266.835 112.526 268.337 109.294 269.653C108.97 269.787 108.747 270.177 108.475 270.445" stroke="#5C5C5C" stroke-linecap="round" stroke-linejoin="round"/>
<path d="M84.553 113.907C84.1475 113.854 83.7379 113.805 83.2188 113.74C83.0809 114.017 82.793 114.354 82.7443 114.723C82.1766 119.324 81.694 123.933 81.0938 128.526C80.3193 134.418 79.0297 140.181 76.4424 145.582" stroke="#5C5C5C" stroke-linecap="round" stroke-linejoin="round"/>
<path d="M73.6037 12.9947C74.212 14.8912 74.9338 16.7591 75.4042 18.6881C76.2315 22.0829 76.7222 25.4778 76.3167 29.0473C75.9558 32.2554 76.0328 35.5528 76.3005 38.7812C76.5519 41.8065 78.5025 43.2522 81.5115 43.2522" stroke="#5C5C5C" stroke-linecap="round" stroke-linejoin="round"/>
<path d="M216.756 151.876C214.254 154.101 211.078 154.836 208.065 156.01C205.494 157.009 203.215 158.735 200.725 159.977C197.347 161.663 194.516 161.476 191.633 159.364C189.581 157.866 189.37 156.708 190.198 154.317C190.457 153.569 190.737 152.826 191.009 152.083" stroke="#5C5C5C" stroke-linecap="round" stroke-linejoin="round"/>
<path d="M98.1383 13.1978C98.122 16.9419 96.5932 20.2759 95.0522 23.5327C92.9313 28.0158 90.4981 32.3528 88.2028 36.7507C86.8402 39.3578 86.6253 41.9405 88.4055 44.4664" stroke="#5C5C5C" stroke-linecap="round" stroke-linejoin="round"/>
<path d="M128.959 213.804C129.417 206.498 127.697 199.794 123.954 193.463C121.683 189.622 118.196 188.46 114.363 188.537C110.572 188.614 106.853 188.887 103.207 187.611" stroke="#5C5C5C" stroke-linecap="round" stroke-linejoin="round"/>
<path d="M78.0645 97.0544C76.8479 100.031 75.5583 102.983 74.435 105.996C73.4253 108.705 72.4966 111.41 71.0083 113.931C69.0293 117.286 67.5937 120.9 66.4664 124.656C65.6431 127.409 65.047 127.828 62.2448 127.73C59.7467 127.645 57.2365 127.612 54.7465 127.767C53.9152 127.819 52.8081 128.335 52.4107 128.989C52.1065 129.493 52.4715 130.772 52.9703 131.32C53.9963 132.449 54.6695 134.142 56.5187 134.256C57.7596 133.302 58.2382 131.162 60.424 131.978" stroke="#5C5C5C" stroke-linecap="round" stroke-linejoin="round"/>
<path d="M59.8157 34.7203C56.1132 32.7386 53.9558 32.7792 51.7132 34.9315C50.9224 35.6909 50.0829 36.4624 49.499 37.3761C47.6741 40.2431 45.464 43.0004 44.3285 46.1354C42.97 49.8876 43.3755 51.512 47.0374 54.0094" stroke="#5C5C5C" stroke-linecap="round" stroke-linejoin="round"/>
<path d="M128.147 155.937C123.618 152.079 119.12 148.189 114.55 144.376C112.263 142.467 109.594 142.093 106.646 142.479C104.448 142.767 102.181 142.536 99.9469 142.536C99.8861 142.357 99.8212 142.179 99.7604 142C100.369 141.163 100.924 140.282 101.593 139.498C102.907 137.963 103.532 136.132 103.771 134.203C103.925 132.961 104.039 131.787 102.226 131.072C99.3102 129.923 98.8398 127.084 98.7465 124.258C98.7182 123.381 98.7993 122.496 98.7303 121.619C98.5681 119.519 99.0629 117.724 100.758 116.327C101.829 115.446 102.798 114.443 103.812 113.497" stroke="#5C5C5C" stroke-linecap="round" stroke-linejoin="round"/>
<path d="M76.2396 146.394C76.5113 147.543 76.6573 148.741 77.071 149.837C80.1124 157.91 83.8636 165.618 89.0138 172.586C89.5613 173.325 90.1371 174.048 90.6319 174.824C92.984 178.503 94.0789 182.738 95.186 186.832C96.946 193.341 100.632 197.885 106.667 200.59C110.811 202.45 115.041 204.127 119.23 205.889" stroke="#5C5C5C" stroke-linecap="round" stroke-linejoin="round"/>
<path d="M222.028 241.012C222.839 241.958 223.617 242.941 224.469 243.846C225.584 245.028 226.833 246.092 227.896 247.318C231.132 251.054 230.629 254.453 226.488 257.255C223.605 259.204 220.333 259.655 216.959 259.696" stroke="#5C5C5C" stroke-linecap="round" stroke-linejoin="round"/>
<path d="M188.166 292.991C183.94 294.249 180.307 296.369 178.04 300.308C174.986 305.612 170.327 308.503 164.446 309.652C164.227 309.697 164.037 309.912 163.834 310.046" stroke="#5C5C5C" stroke-linecap="round" stroke-linejoin="round"/>
<path d="M112.737 188.83C115.657 190.247 118.39 191.944 120.434 194.523C123.881 198.876 126.254 203.79 127.746 209.134C127.92 209.751 128.147 210.352 128.35 210.961" stroke="#5C5C5C" stroke-linecap="round" stroke-linejoin="round"/>
<path d="M148.424 184.972C142.747 186.19 137.073 187.433 131.388 188.615C129.105 189.09 126.793 189.439 124.498 189.845" stroke="#5C5C5C" stroke-linecap="round" stroke-linejoin="round"/>
<path d="M45.2166 107.613C44 108.9 42.7469 110.151 41.579 111.483C40.8288 112.339 40.0745 113.18 40.922 114.54C41.729 115.836 42.9132 116.287 44.2028 116.311C48.0594 116.384 51.4982 114.955 54.2923 112.433C56.4822 110.459 58.2422 108.002 60.2942 105.647C59.4304 103.008 56.8634 101.708 55.1521 99.698" stroke="#5C5C5C" stroke-linecap="round" stroke-linejoin="round"/>
<path d="M72.3871 112.08C72.2533 113.976 72.1681 115.876 71.9735 117.765C71.3692 123.592 72.0992 129.322 73.2144 135.023C73.2468 135.178 73.4699 135.295 73.6077 135.434" stroke="#5C5C5C" stroke-linecap="round" stroke-linejoin="round"/>
<path d="M75.8341 147.003C73.7902 150.422 71.7666 153.87 70.7853 157.768C69.3659 163.421 71.7342 167.1 76.852 169.122C79.0581 169.995 81.3088 170.755 83.5392 171.567" stroke="#5C5C5C" stroke-linecap="round" stroke-linejoin="round"/>
<path d="M114.359 48.5272C111.387 51.0328 108.268 53.3881 105.47 56.0763C101.553 59.8367 98.8682 64.2671 99.5576 70.0497" stroke="#5C5C5C" stroke-linecap="round" stroke-linejoin="round"/>
<path d="M127.134 155.328C125.175 154.991 123.115 154.926 121.274 154.252C118.09 153.086 115.061 153.037 111.699 153.577C107.867 154.195 103.881 153.825 99.9591 153.919C99.0385 153.943 98.118 154.109 97.3069 154.199C95.9119 157.143 97.1163 159.328 98.487 161.094C100.876 162.288 102.932 163.315 105.085 164.392C105.361 164.944 105.701 165.618 106.042 166.296" stroke="#5C5C5C" stroke-linecap="round" stroke-linejoin="round"/>
<path d="M104.829 113.501C105.482 115.775 107.486 116.534 109.278 117.582C110.56 118.329 111.736 119.255 112.822 120.006C112.628 121.781 111.549 122.224 110.499 122.398C108.832 122.674 107.121 122.658 105.438 122.853C103.605 123.068 101.788 123.381 99.9631 123.653" stroke="#5C5C5C" stroke-linecap="round" stroke-linejoin="round"/>
<path d="M56.7742 52.9942C56.397 51.9018 56.024 50.8054 55.5941 49.5627C52.8608 51.6135 51.3076 54.3952 50.1316 57.2784C47.9255 62.6874 46.0317 68.2264 43.9838 73.7005C43.8175 74.1472 43.4566 74.5167 43.1849 74.9228" stroke="#5C5C5C" stroke-linecap="round" stroke-linejoin="round"/>
<path d="M99.9631 56.2428C98.414 62.5209 97.7652 68.9371 96.873 75.3207C96.5851 77.3958 95.6848 79.3816 95.1089 81.4242C94.9021 82.147 94.8697 82.9226 94.675 83.6495C94.5615 84.08 94.3911 84.6769 94.0667 84.8394C91.4308 86.1713 90.1087 88.6363 88.6002 90.9591C88.1825 91.6047 87.6634 92.1814 87.1889 92.7905" stroke="#5C5C5C" stroke-linecap="round" stroke-linejoin="round"/>
<path d="M161.806 263.346C160.862 267.407 159.848 271.456 158.988 275.533C158.291 278.83 157.775 282.164 156.835 285.563C156.733 285.198 156.526 284.824 156.551 284.463C156.887 279.204 155.663 274.307 153.307 269.633C152.406 267.85 151.668 265.986 150.857 264.159" stroke="#5C5C5C" stroke-linecap="round" stroke-linejoin="round"/>
<path d="M220.203 155.734C220.945 153.297 221.594 150.824 222.458 148.432C223.605 145.257 223.784 142.244 222.307 139.048C221.59 137.496 221.541 135.572 221.452 133.801C221.273 130.301 220.365 127.032 218.556 124.071C216.772 121.147 213.106 119.864 209.866 120.81C208.305 121.265 206.759 121.769 204.959 122.329C202.201 120.043 199.346 117.675 196.564 115.373C197.148 111.95 197.757 108.563 198.272 105.164C198.357 104.587 198.032 103.95 197.899 103.341" stroke="#5C5C5C" stroke-linecap="round" stroke-linejoin="round"/>
<path d="M65.8986 27.4108C66.438 30.3224 66.9733 33.234 67.5207 36.1416C68.0033 38.6959 68.2345 41.3233 70.3432 43.2643C72.01 44.7912 74.4229 45.4653 76.0328 44.6735" stroke="#5C5C5C" stroke-linecap="round" stroke-linejoin="round"/>
<path d="M123.281 30.2534C121.079 28.7874 117.364 29.2179 115.004 31.5082C113.532 32.9376 112.21 34.6066 111.156 36.369C108.759 40.373 105.685 43.7273 101.979 46.4805C95.8511 51.0328 92.3878 57.3433 90.0641 64.3767C89.172 67.0813 88.661 69.9117 88.0203 72.6934C87.9351 73.0629 88.1338 73.5015 88.2028 73.9076" stroke="#5C5C5C" stroke-linecap="round" stroke-linejoin="round"/>
<path d="M71.7788 6.90346C72.675 8.5481 73.4739 10.2212 73.3888 12.4019C74.1795 12.678 75.2096 13.0394 76.2396 13.4008C79.492 14.55 80.7532 17.2343 81.0452 20.3083C81.325 23.2606 81.106 26.2575 81.106 29.2382V31.4716" stroke="#5C5C5C" stroke-linecap="round" stroke-linejoin="round"/>
<path d="M115.171 24.9742C111.046 29.1853 107.834 34.0746 104.582 38.9517C102.834 41.571 100.612 43.8653 98.6046 46.31C98.4099 46.1963 98.2153 46.0826 98.0166 45.9689C98.4627 44.9252 98.9088 43.8816 99.3548 42.842" stroke="#5C5C5C" stroke-linecap="round" stroke-linejoin="round"/>
<path d="M249.806 276.544C247.304 276.747 244.79 276.837 242.308 277.178C238.103 277.762 233.926 278.51 229.733 279.176C229.404 279.228 229.06 279.184 228.719 279.184" stroke="#5C5C5C" stroke-linecap="round" stroke-linejoin="round"/>
<path d="M95.5023 64.7706C94.3993 71.2071 94.3384 77.8303 92.0877 84.0719C91.9215 84.5307 92.1932 85.1439 92.2581 85.684" stroke="#5C5C5C" stroke-linecap="round" stroke-linejoin="round"/>
<path d="M129.567 261.722C130.463 265.377 132.434 268.297 135.662 270.234C139.632 272.617 142.791 275.797 145.382 279.59" stroke="#5C5C5C" stroke-linecap="round" stroke-linejoin="round"/>
<path d="M107.465 270.453C101.829 274.258 95.7821 274.794 89.4234 272.678C88.7948 272.471 88.2028 272.146 87.5945 271.874" stroke="#5C5C5C" stroke-linecap="round" stroke-linejoin="round"/>
<path d="M68.9401 17.2586C66.5758 18.4769 64.1467 19.5896 61.8595 20.9418C58.8181 22.7408 57.2041 25.7458 55.882 28.5965C54.4302 29.2016 53.1285 29.6564 51.9281 30.298C51.5226 30.5133 51.3644 31.2036 51.0968 31.6787" stroke="#5C5C5C" stroke-linecap="round" stroke-linejoin="round"/>
<path d="M144.166 307.61C140.18 313.77 136.189 319.926 132.215 326.095C132.122 326.237 132.203 326.493 132.203 326.696" stroke="#5C5C5C" stroke-linecap="round" stroke-linejoin="round"/>
<path d="M128.35 156.749C121.436 160.781 114.209 163.855 106.046 164.067C105.843 164.071 105.641 164.193 105.438 164.262" stroke="#5C5C5C" stroke-linecap="round" stroke-linejoin="round"/>
<path d="M56.5714 91.7753C57.1797 92.3154 57.7191 92.9814 58.4085 93.3793C61.2959 95.0483 63.2059 97.4036 63.8264 100.746C62.63 105.432 59.9982 109.302 56.5795 112.693C56.0686 113.196 55.6265 113.769 55.1561 114.313" stroke="#5C5C5C" stroke-linecap="round" stroke-linejoin="round"/>
<path d="M100.369 142.739C99.2332 147.62 102.303 150.962 107.263 150.256C107.396 150.235 107.551 150.296 107.664 150.248C111.099 148.806 113.642 150.394 115.982 152.692" stroke="#5C5C5C" stroke-linecap="round" stroke-linejoin="round"/>
<path d="M85.5668 11.5734C84.4192 9.47397 83.3283 7.34202 82.1036 5.28723C80.8262 3.15122 77.7563 1.81114 74.6337 3.88218C72.5858 5.2385 70.7001 6.83848 68.7333 8.31663C68.5711 8.43845 68.3318 8.45876 68.129 8.52779" stroke="#5C5C5C" stroke-linecap="round" stroke-linejoin="round"/>
<path d="M168.092 22.9438C171 23.756 173.956 24.4179 176.795 25.4209C179.698 26.4483 182.488 27.8168 185.327 29.0351" stroke="#5C5C5C" stroke-linecap="round" stroke-linejoin="round"/>
<path d="M194.654 85.8871C194.926 86.9023 195.096 87.9581 195.482 88.9246C197.169 93.1723 198.097 97.5702 198.292 102.131C198.304 102.399 198.166 102.671 198.101 102.943" stroke="#5C5C5C" stroke-linecap="round" stroke-linejoin="round"/>
<path d="M152.074 87.9175C150.074 88.5794 150.638 90.2322 151.141 91.3327C151.741 92.6443 152.856 93.7692 153.919 94.8006C156.149 96.9651 158.655 98.8696 160.748 101.156C163.027 103.645 162.143 105.14 158.96 105.749C156.835 106.155 154.641 106.195 152.479 106.398" stroke="#5C5C5C" stroke-linecap="round" stroke-linejoin="round"/>
<path d="M139.502 83.8566C139.166 83.9906 138.687 84.0312 138.513 84.279C137.986 85.0505 137.572 85.9033 137.061 86.8251C137.118 87.1743 137.187 87.6495 137.272 88.1165C138.034 92.2626 137.548 93.3265 134.028 95.223C133.549 95.4829 133.079 95.759 132.608 96.0351C129.348 97.9397 128.938 98.8777 130.208 102.317C130.609 103.41 131.392 104.36 132 105.375" stroke="#5C5C5C" stroke-linecap="round" stroke-linejoin="round"/>
<path d="M198.507 105.176C200.466 108.222 202.489 111.231 204.371 114.321C206.403 117.659 208.321 121.07 210.247 124.473C210.466 124.859 210.401 125.407 210.47 125.882" stroke="#5C5C5C" stroke-linecap="round" stroke-linejoin="round"/>
<path d="M158.157 22.1317C154.779 22.6068 151.401 23.1022 148.018 23.5408C146.879 23.687 145.711 23.6057 144.575 23.7844C143.675 23.9266 142.815 24.3001 141.935 24.5722" stroke="#5C5C5C" stroke-linecap="round" stroke-linejoin="round"/>
<path d="M198.101 128.323C200.198 128.526 202.323 128.567 204.379 128.969C207.737 129.627 210.324 131.624 212.506 134.203C212.997 134.784 213.58 135.291 214.12 135.832" stroke="#5C5C5C" stroke-linecap="round" stroke-linejoin="round"/>
<path d="M214.728 146.597C213.443 147.681 212.084 148.684 210.896 149.866C209.282 151.466 207.623 151.397 205.587 150.719C203.377 149.984 201.013 149.712 198.714 149.236" stroke="#5C5C5C" stroke-linecap="round" stroke-linejoin="round"/>
<path d="M124.903 34.3142C124.429 36.6086 124.116 38.8827 122.953 41.0552C121.533 43.7151 119.416 45.4044 116.991 46.8947C116.192 47.3861 115.349 47.8003 114.672 48.1698C112.109 47.8978 110.158 49.1282 108.524 50.6023C106.581 52.3566 105 54.5129 103.195 56.4296C102.048 57.6479 100.774 58.7443 99.5576 59.8935" stroke="#5C5C5C" stroke-linecap="round" stroke-linejoin="round"/>
<path d="M72.5899 34.7203C71.1016 30.9315 69.6417 27.1306 68.1169 23.354C67.468 21.7459 66.8273 19.9997 64.4793 20.5073" stroke="#5C5C5C" stroke-linecap="round" stroke-linejoin="round"/>
<path d="M122.47 122.841C122.742 123.45 122.957 124.092 123.289 124.664C124.984 127.584 123.658 130.049 122.04 132.368C120.398 134.723 117.206 133.35 115.771 131.58C114.355 129.83 112.879 128.128 111.196 126.13C109.947 127.194 108.808 128.165 107.668 129.139" stroke="#5C5C5C" stroke-linecap="round" stroke-linejoin="round"/>
<path d="M138.286 16.0404C134.259 14.4688 130.966 17.2952 131.485 22.1235C131.777 24.8199 133.014 27.4108 133.825 30.0503" stroke="#5C5C5C" stroke-linecap="round" stroke-linejoin="round"/>
<path d="M107.465 25.7864C109.156 23.2159 110.685 20.5154 112.591 18.1155C113.889 16.4789 115.702 15.2526 117.287 13.8434C117.539 13.9003 117.79 13.9612 118.038 14.0181C119.988 18.416 121.951 22.8058 123.881 27.2118C124.222 27.9915 124.433 28.8321 124.705 29.6442" stroke="#5C5C5C" stroke-linecap="round" stroke-linejoin="round"/>
<path d="M214.12 144.769C214.027 140.022 211.277 137.212 207.214 135.458C206.009 134.938 204.659 134.751 203.373 134.414" stroke="#5C5C5C" stroke-linecap="round" stroke-linejoin="round"/>
<path d="M98.341 61.725C94.6872 64.2183 92.5136 67.9462 89.9425 71.4061C87.043 75.3126 87.2457 79.6983 86.7753 84.0556C86.4712 86.9023 86.1062 89.7408 85.7696 92.5834" stroke="#5C5C5C" stroke-linecap="round" stroke-linejoin="round"/>
<path d="M68.129 127.714C69.0739 129.407 70.1283 131.048 70.9312 132.806C71.4868 134.028 72.1559 135.356 70.7893 136.672C69.6336 137.781 68.4048 137.984 67.1436 137.216C66.3974 136.766 65.777 135.978 65.3187 135.214C64.021 133.046 62.5449 132.096 60.3023 132.437C61.8028 134.057 62.7598 136.018 65.2944 135.84" stroke="#5C5C5C" stroke-linecap="round" stroke-linejoin="round"/>
<path d="M145.585 80.608C139.997 80.2262 135.204 81.8262 131.607 86.3053C130.633 87.5155 129.822 88.8556 128.869 90.2362C128.184 88.5794 128.472 87.02 129.396 85.7084C130.804 83.7145 132.669 82.2039 135.041 81.4201" stroke="#5C5C5C" stroke-linecap="round" stroke-linejoin="round"/>
<path d="M189.18 184.769C187.091 187.689 186.933 191.14 186.568 194.519C186.418 195.924 186.544 197.358 186.544 198.779" stroke="#5C5C5C" stroke-linecap="round" stroke-linejoin="round"/>
<path d="M68.129 31.0655C68.79 36.8928 71.1827 41.6644 76.4505 44.6531C76.998 44.9658 77.659 45.0755 78.2673 45.2785" stroke="#5C5C5C" stroke-linecap="round" stroke-linejoin="round"/>
<path d="M86.9862 77.9684C85.7006 81.148 84.3867 84.3196 83.1499 87.5155C82.6105 88.9083 82.2334 90.3662 81.7224 91.9743C83.1174 92.1733 84.5611 92.3804 86.0007 92.5875C86.0413 92.758 86.0818 92.9326 86.1265 93.1032C84.995 93.6067 83.8798 94.155 82.7281 94.6016C81.1182 95.223 80.1327 96.2219 80.299 98.0656" stroke="#5C5C5C" stroke-linecap="round" stroke-linejoin="round"/>
<path d="M59.8157 16.6495C56.6322 19.3337 53.6881 22.2372 52.1471 26.2088C51.6321 27.5367 51.5672 29.0351 51.2995 30.4564" stroke="#5C5C5C" stroke-linecap="round" stroke-linejoin="round"/>
<path d="M156.332 285.275C154.568 290.871 150.906 295.106 146.599 298.879" stroke="#5C5C5C" stroke-linecap="round" stroke-linejoin="round"/>
<path d="M99.1521 123.247C101.172 125.886 103.958 127.458 106.845 128.956C111.306 131.275 111.318 135.442 108.066 138.26C106.484 139.628 105.085 139.389 103.613 137.663" stroke="#5C5C5C" stroke-linecap="round" stroke-linejoin="round"/>
<path d="M99.7604 70.4558C99.0182 73.6355 98.268 76.8151 97.53 79.9988C97.1771 81.5257 96.4999 82.8292 95.0968 83.6536" stroke="#5C5C5C" stroke-linecap="round" stroke-linejoin="round"/>
<path d="M155.115 86.2932C157.277 86.9023 159.471 87.4261 161.596 88.1408C165.249 89.3632 168.299 91.4342 170.331 94.8169C170.521 95.1336 170.862 95.3651 171.13 95.6372" stroke="#5C5C5C" stroke-linecap="round" stroke-linejoin="round"/>
<path d="M162.415 86.6992C166.474 86.6911 169.017 89.1276 171.113 92.1936C172.034 93.5377 172.756 95.024 173.567 96.4453" stroke="#5C5C5C" stroke-linecap="round" stroke-linejoin="round"/>
<path d="M63.0599 36.3447C61.9447 34.5254 61.0769 32.5193 59.0087 31.4635C55.5941 29.7214 52.4837 30.5133 49.4584 33.896C48.8907 34.5335 48.1202 34.9924 47.447 35.5325" stroke="#5C5C5C" stroke-linecap="round" stroke-linejoin="round"/>
<path d="M152.885 82.4354C147.832 80.7257 143.176 81.5176 138.894 84.6688" stroke="#5C5C5C" stroke-linecap="round" stroke-linejoin="round"/>
<path d="M151.263 83.4506C146.335 82.9024 142.219 85.1439 138.083 87.3084" stroke="#5C5C5C" stroke-linecap="round" stroke-linejoin="round"/>
<path d="M54.9493 39.7964C52.285 40.6492 52.0133 43.2562 51.1617 45.307C50.3709 47.2074 50.1195 49.3313 49.5679 51.6135C50.1073 51.8409 50.6345 52.0642 51.0603 52.247C52.5851 48.6003 53.9963 45.3557 58.5869 45.4288C57.9746 43.0654 57.5204 40.8644 55.1521 39.8004" stroke="#5C5C5C" stroke-linecap="round" stroke-linejoin="round"/>
<path d="M60.6267 36.5477C62.2529 38.2736 61.9609 40.5923 62.3948 42.6512C62.9666 45.3638 63.871 47.78 65.8824 49.7658C66.8678 50.7404 67.6586 51.914 68.5386 52.9942" stroke="#5C5C5C" stroke-linecap="round" stroke-linejoin="round"/>
<path d="M220.811 137.663C219.189 136.173 217.559 134.694 215.949 133.192C215.182 132.473 214.428 131.734 213.718 130.958C211.018 127.982 207.7 126.098 203.775 125.285C202.631 125.05 201.479 124.875 200.328 124.672" stroke="#5C5C5C" stroke-linecap="round" stroke-linejoin="round"/>
<path d="M99.5576 142.13C97.3799 144.635 96.5405 147.722 95.9443 150.869C95.7456 151.908 95.6686 153.102 96.7189 153.906" stroke="#5C5C5C" stroke-linecap="round" stroke-linejoin="round"/>
<path d="M50.2857 120.404C48.5784 121.403 48.0026 123.072 47.5727 125.005C45.8208 125.862 44.0122 126.861 43.9959 129.777C45.5086 130.963 47.2321 132.315 49.1016 133.781C50.01 133.525 51.4334 134.414 52.4715 132.875C51.2711 131.624 50.1032 130.414 48.9353 129.2L49.6409 128.648C49.8315 129.35 51.1779 129.184 50.4804 130.556" stroke="#5C5C5C" stroke-linecap="round" stroke-linejoin="round"/>
<path d="M102.194 92.7905C106.383 95.223 109.935 98.2524 111.723 102.943" stroke="#5C5C5C" stroke-linecap="round" stroke-linejoin="round"/>
<path d="M100.571 29.8473C98.41 33.23 96.1106 36.5396 94.1397 40.0319C93.1381 41.8106 92.7366 43.9263 92.0472 45.8836C91.9701 46.1069 91.7836 46.2937 91.6498 46.4968" stroke="#5C5C5C" stroke-linecap="round" stroke-linejoin="round"/>
<path d="M127.336 17.2586C126.237 14.7815 124.923 12.7389 121.89 12.0607C120.515 11.7562 119.53 9.98971 118.192 9.17348C115.978 7.82121 113.625 6.68417 111.306 5.50652C111.062 5.3847 110.645 5.61617 110.304 5.6852" stroke="#5C5C5C" stroke-linecap="round" stroke-linejoin="round"/>
<path d="M68.7373 17.8678C70.4365 21.9083 71.8883 26.0991 75.4286 29.0351" stroke="#5C5C5C" stroke-linecap="round" stroke-linejoin="round"/>
<path d="M102.396 150.049C102.396 150.386 102.291 150.974 102.413 151.027C105.551 152.375 108.84 152.197 112.125 151.835C112.429 151.803 112.668 151.198 112.94 150.861" stroke="#5C5C5C" stroke-linecap="round" stroke-linejoin="round"/>
<path d="M118.212 14.213C119.498 14.4851 120.828 14.6272 122.048 15.0658C123.046 15.4231 123.399 16.2759 123.804 17.4211C125.09 21.0474 125.422 25.0758 127.941 28.227" stroke="#5C5C5C" stroke-linecap="round" stroke-linejoin="round"/>
<path d="M43.3917 101.115C43.047 103.43 43.9919 105.261 45.395 107.024C46.8103 108.802 48.4852 109.464 50.6953 109.062C52.6418 108.709 54.6614 107.678 56.5714 109.241" stroke="#5C5C5C" stroke-linecap="round" stroke-linejoin="round"/>
<path d="M107.871 106.597C105.774 105.655 104.031 104.112 101.606 103.641C99.9712 103.324 98.6898 103.43 97.3272 104.161" stroke="#5C5C5C" stroke-linecap="round" stroke-linejoin="round"/>
<path d="M124.7 30.4564C122.3 30.3427 120.24 31.3985 118.455 32.7427C116.521 34.2005 114.891 36.0644 113.147 37.77C111.711 39.175 110.085 40.4502 108.933 42.0623C106.744 45.1283 104.829 48.3891 102.802 51.5728" stroke="#5C5C5C" stroke-linecap="round" stroke-linejoin="round"/>
<path d="M49.4747 89.3388C49.2719 88.9327 49.1583 88.4373 48.8501 88.1368C46.9847 86.281 45.1193 84.4211 43.1606 82.6668C42.5806 82.147 41.7006 81.9602 40.9545 81.6232" stroke="#5C5C5C" stroke-linecap="round" stroke-linejoin="round"/>
<path d="M214.931 132.993C216.079 135.767 217.38 138.495 218.309 141.342C218.71 142.568 218.674 143.88 220 144.566" stroke="#5C5C5C" stroke-linecap="round" stroke-linejoin="round"/>
<path d="M263.594 264.159C260.281 262.059 256.972 259.964 253.659 257.864" stroke="#5C5C5C" stroke-linecap="round" stroke-linejoin="round"/>
<path d="M103.816 32.0807C103.138 32.4178 102.315 32.6127 101.812 33.1203C99.2575 35.7071 96.7878 38.3751 94.2857 41.0146" stroke="#5C5C5C" stroke-linecap="round" stroke-linejoin="round"/>
<path d="M107.871 14.8221C107.713 18.0302 106.225 20.7753 104.817 23.5489C104.558 24.0606 104.152 24.5032 103.816 24.9742" stroke="#5C5C5C" stroke-linecap="round" stroke-linejoin="round"/>
<path d="M93.4747 102.13C93.2719 102.537 92.8704 102.955 92.8988 103.345C93.1137 106.528 93.4098 109.708 93.6774 112.892" stroke="#5C5C5C" stroke-linecap="round" stroke-linejoin="round"/>
<path d="M205.401 122.435C208.24 124.465 210.993 126.63 213.941 128.489C216.914 130.362 219.051 132.989 221.217 135.633" stroke="#5C5C5C" stroke-linecap="round" stroke-linejoin="round"/>
<path d="M108.276 92.7905C107.599 92.3154 106.833 91.9337 106.265 91.353C104.728 89.7774 103.321 88.0759 101.76 86.5246C101.249 86.017 100.434 85.8221 99.7563 85.481" stroke="#5C5C5C" stroke-linecap="round" stroke-linejoin="round"/>
<path d="M113.346 100.1C112.263 102.2 111.233 104.323 110.077 106.382C109.615 107.207 108.885 107.885 108.179 108.246C107.129 108.51 106.079 108.774 105.032 109.034" stroke="#5C5C5C" stroke-linecap="round" stroke-linejoin="round"/>
<path d="M104.829 5.48215C106.143 6.87908 107.834 8.0283 108.062 10.1521C108.199 11.4313 108.208 12.7227 108.277 14.0099" stroke="#5C5C5C" stroke-linecap="round" stroke-linejoin="round"/>
<path d="M87.1889 100.709C89.0828 99.4097 91.1915 98.8452 93.2273 98.7762C93.864 102.561 94.4236 106.216 95.1252 109.842C95.3766 111.15 95.2955 112.149 94.087 112.9C92.5946 113.822 92.769 115.694 91.8525 116.953" stroke="#5C5C5C" stroke-linecap="round" stroke-linejoin="round"/>
<path d="M105.032 85.481C105.507 86.3622 105.941 87.2637 106.46 88.1165C107.417 89.6921 108.422 91.2393 109.408 92.7986C109.302 92.9327 109.193 93.0626 109.088 93.1966H110.304" stroke="#5C5C5C" stroke-linecap="round" stroke-linejoin="round"/>
<path d="M142.341 100.506C138.841 100.311 136.051 101.806 133.622 104.161" stroke="#5C5C5C" stroke-linecap="round" stroke-linejoin="round"/>
<path d="M72.7926 7.91867C75.603 9.56738 78.612 10.9684 80.2868 14.014C80.3436 14.1196 80.2949 14.282 80.2949 14.416" stroke="#5C5C5C" stroke-linecap="round" stroke-linejoin="round"/>
<path d="M94.4885 97.2574C91.7187 97.9356 88.9489 98.6178 86.1751 99.2838C84.6909 99.6412 83.2026 99.962 81.7143 100.303" stroke="#5C5C5C" stroke-linecap="round" stroke-linejoin="round"/>
<path d="M145.18 30.6595C142.041 30.3711 139.068 30.6148 136.927 33.4899C136.777 33.4452 136.631 33.4005 136.481 33.3559C136.408 32.8645 136.104 32.2391 136.295 31.898C137.365 30.026 138.553 28.223 139.705 26.3956" stroke="#5C5C5C" stroke-linecap="round" stroke-linejoin="round"/>
<path d="M60.424 25.1773C61.235 25.4494 62.1596 25.555 62.8328 26.026C64.1792 26.9681 65.0186 28.1417 64.9537 30.0544C64.8686 32.5478 65.339 35.0574 65.4688 37.567C65.5296 38.7121 65.3552 39.8654 65.2863 41.0187" stroke="#5C5C5C" stroke-linecap="round" stroke-linejoin="round"/>
<path d="M109.493 5.48215C112.656 7.83744 115.211 10.7531 117.401 14.0099" stroke="#5C5C5C" stroke-linecap="round" stroke-linejoin="round"/>
<path d="M124.295 31.2686C121.209 33.8757 118.626 36.9132 116.594 40.4096C115.321 42.5984 113.297 43.8166 111.115 44.8806C109.676 45.5831 108.272 46.3628 106.853 47.1059" stroke="#5C5C5C" stroke-linecap="round" stroke-linejoin="round"/>
<path d="M145.18 21.7256C142.394 20.6413 138.683 22.5986 137.88 25.5834" stroke="#5C5C5C" stroke-linecap="round" stroke-linejoin="round"/>
<path d="M85.1613 97.8666C84.7558 99.6249 84.1759 101.367 83.9853 103.15C83.6933 105.842 83.673 108.559 83.5392 111.267" stroke="#5C5C5C" stroke-linecap="round" stroke-linejoin="round"/>
<path d="M159.779 85.684C158.428 85.347 157.09 84.8922 155.719 84.6932C153.051 84.3033 150.512 85.1196 148.031 85.9236C146.729 86.3459 145.549 87.1622 143.833 88.0475C141.051 87.8891 137.742 87.6738 134.433 87.5236C133.513 87.483 132.255 87.0525 132.203 88.7256" stroke="#5C5C5C" stroke-linecap="round" stroke-linejoin="round"/>
<path d="M196.885 130.15C197.29 130.219 197.813 130.15 198.085 130.374C202.1 133.728 206.159 137.029 210.04 140.534C212.822 143.048 215.04 146.057 216.354 149.642" stroke="#5C5C5C" stroke-linecap="round" stroke-linejoin="round"/>
<path d="M117.604 153.5C120.171 154.991 122.742 156.477 125.309 157.967" stroke="#5C5C5C" stroke-linecap="round" stroke-linejoin="round"/>
<path d="M153.29 109.44C149.085 112.238 144.417 112.961 139.506 112.461C138.476 112.356 137.475 111.946 136.461 111.674" stroke="#5C5C5C" stroke-linecap="round" stroke-linejoin="round"/>
<path d="M196.682 115.937C195.745 118.419 196.167 120.936 196.479 123.45" stroke="#5C5C5C" stroke-linecap="round" stroke-linejoin="round"/>
<path d="M153.696 88.3236C154.17 87.8485 154.645 87.3774 155.115 86.9023C155.018 86.6952 154.916 86.4921 154.819 86.285C152.268 86.3013 149.892 87.0891 147.613 88.3195" stroke="#5C5C5C" stroke-linecap="round" stroke-linejoin="round"/>
<path d="M119.226 37.3598C121.793 37.7659 124.376 38.103 126.923 38.6106C127.977 38.8218 128.959 39.3903 130.508 40.0075C130.272 39.1101 130.297 38.3791 129.944 37.9974C128.156 36.0441 126.314 34.1112 123.484 33.7051" stroke="#5C5C5C" stroke-linecap="round" stroke-linejoin="round"/>
<path d="M91.8525 87.3083C92.1242 89.6109 92.3878 91.9093 92.6676 94.2118C92.7406 94.8209 92.8501 95.426 92.9515 96.0798C90.5021 96.6321 88.1176 97.164 85.6114 97.7285C85.4817 97.5417 85.2343 97.1884 84.8409 96.628C84.7112 97.0097 84.63 97.2371 84.553 97.4645" stroke="#5C5C5C" stroke-linecap="round" stroke-linejoin="round"/>
<path d="M39.3364 83.2475C41.7007 85.0058 44.0689 86.7683 46.4332 88.5266" stroke="#5C5C5C" stroke-linecap="round" stroke-linejoin="round"/>
<path d="M111.521 45.0755C110.304 46.6308 109.225 48.3242 107.839 49.713C105.945 51.6053 103.828 53.2825 101.776 55.0083C101.472 55.2642 100.977 55.2966 100.571 55.4306" stroke="#5C5C5C" stroke-linecap="round" stroke-linejoin="round"/>
<path d="M218.986 233.499C221.014 235.867 223.041 238.238 225.069 240.606" stroke="#5C5C5C" stroke-linecap="round" stroke-linejoin="round"/>
<path d="M94.6913 84.2627C97.5421 83.7998 99.2251 85.2008 100.855 87.4505C102.433 89.6231 104.692 91.3002 106.654 93.1966" stroke="#5C5C5C" stroke-linecap="round" stroke-linejoin="round"/>
<path d="M49.4747 98.4757C51.8389 99.4219 54.2072 100.372 56.5714 101.318" stroke="#5C5C5C" stroke-linecap="round" stroke-linejoin="round"/>
<path d="M104.018 190.048C102.53 190.32 101.042 190.576 99.5576 190.864C98.6736 191.039 97.7976 191.266 96.9217 191.469" stroke="#5C5C5C" stroke-linecap="round" stroke-linejoin="round"/>
<path d="M64.2765 32.0808C63.5425 29.226 61.673 27.6544 58.8018 27.2077" stroke="#5C5C5C" stroke-linecap="round" stroke-linejoin="round"/>
<path d="M98.9493 161.622C99.6225 164.367 101.666 165.529 105.032 165.074" stroke="#5C5C5C" stroke-linecap="round" stroke-linejoin="round"/>
<path d="M125.512 31.2686C127.803 32.763 130.427 33.9284 131.189 36.9538" stroke="#5C5C5C" stroke-linecap="round" stroke-linejoin="round"/>
<path d="M220 145.785C221.452 147.864 220.612 149.866 219.805 151.88C219.68 152.197 219.663 152.554 219.594 152.891" stroke="#5C5C5C" stroke-linecap="round" stroke-linejoin="round"/>
<path d="M65.4931 10.1521C63.3235 11.2283 61.1539 12.3003 58.6842 13.5226C60.2009 15.8048 61.4297 17.6485 62.6544 19.4921" stroke="#5C5C5C" stroke-linecap="round" stroke-linejoin="round"/>
<path d="M67.318 9.33996C65.7648 9.27093 64.1913 9.0354 62.6625 9.21408C62.0015 9.29123 61.4378 10.2171 60.8295 10.7613" stroke="#5C5C5C" stroke-linecap="round" stroke-linejoin="round"/>
<path d="M99.3548 55.6337C99.5414 55.788 99.7279 55.9464 100.166 56.3119V54.3464C99.7279 54.7159 99.4562 54.8337 99.367 55.0327C98.4019 57.258 97.4489 59.4874 96.5324 61.7331C96.4148 62.0214 96.5161 62.4031 96.5161 62.7402" stroke="#5C5C5C" stroke-linecap="round" stroke-linejoin="round"/>
<path d="M55.5576 87.9175C54.7425 85.7612 54.6938 83.2516 52.7148 81.6272C52.3985 81.3673 52.0376 81.1602 51.478 81.1115C52.8933 83.6008 54.1464 86.0251 53.7287 88.9327" stroke="#5C5C5C" stroke-linecap="round" stroke-linejoin="round"/>
<path d="M104.829 44.6694C103.885 46.6308 102.919 48.5881 102.007 50.5658C101.877 50.846 101.991 51.2358 101.991 51.5729" stroke="#5C5C5C" stroke-linecap="round" stroke-linejoin="round"/>
<path d="M99.5576 110.049C100.048 112.579 99.7563 114.865 97.6151 116.616C97.2542 116.417 96.9906 116.27 96.7595 116.144C97.3475 114.622 97.9396 113.083 98.4708 111.694C97.5584 110.171 96.5567 110.411 95.4983 111.064" stroke="#5C5C5C" stroke-linecap="round" stroke-linejoin="round"/>
<path d="M92.2581 177.053C93.8802 178.747 95.4861 180.452 97.1366 182.117C97.5381 182.523 98.0734 182.803 98.5438 183.145" stroke="#5C5C5C" stroke-linecap="round" stroke-linejoin="round"/>
<path d="M122.47 208.525C123.889 209.609 125.512 210.511 126.671 211.822C127.884 213.191 129.782 214.214 129.77 216.444C129.77 217.053 129.77 217.662 129.77 218.271" stroke="#5C5C5C" stroke-linecap="round" stroke-linejoin="round"/>
<path d="M192.829 32.8929C190.599 31.7437 188.369 30.5904 186.138 29.4412" stroke="#5C5C5C" stroke-linecap="round" stroke-linejoin="round"/>
<path d="M66.9124 26.5986C66.657 25.4453 66.4015 24.292 66.1582 23.2037C65.3633 22.5946 64.6374 22.0342 63.9196 21.486C60.501 24.0971 58.5991 25.9367 58.1652 29.0392C58.668 29.3478 59.2439 29.697 59.8157 30.0503" stroke="#5C5C5C" stroke-linecap="round" stroke-linejoin="round"/>
<path d="M59.8157 93.8057C59.2682 92.157 58.7207 90.5043 58.1733 88.8556C58.4247 88.7662 58.6721 88.681 58.9235 88.5916C60.1685 90.6992 61.8839 92.6037 61.4378 95.4301" stroke="#5C5C5C" stroke-linecap="round" stroke-linejoin="round"/>
<path d="M109.088 128.323C111.249 129.472 113.415 130.626 115.576 131.775" stroke="#5C5C5C" stroke-linecap="round" stroke-linejoin="round"/>
<path d="M60.2212 30.4564C62.3624 31.8331 64.3414 33.299 63.4654 36.3447" stroke="#5C5C5C" stroke-linecap="round" stroke-linejoin="round"/>
<path d="M217.161 143.145V149.642" stroke="#5C5C5C" stroke-linecap="round" stroke-linejoin="round"/>
<path d="M94.894 53.6033C92.7325 53.6723 90.567 53.7373 88.4055 53.8063" stroke="#5C5C5C" stroke-linecap="round" stroke-linejoin="round"/>
<path d="M91.6498 104.973C89.1639 105.399 87.3877 107.332 86.9862 110.049" stroke="#5C5C5C" stroke-linecap="round" stroke-linejoin="round"/>
<path d="M44.4055 104.77C44.9449 104.904 45.6221 104.88 46.0033 105.205C47.5241 106.488 48.9799 106.874 51.1171 106.545C53.4448 106.187 56.1497 105.237 58.3923 107.207" stroke="#5C5C5C" stroke-linecap="round" stroke-linejoin="round"/>
<path d="M105.641 86.0901C106.383 86.3622 107.445 86.4109 107.814 86.9429C109.286 89.0464 110.633 91.1905 110.564 94.0128C110.507 96.3153 111.314 98.4595 113.204 99.9661C113.35 99.9051 113.496 99.8442 113.642 99.7793C113.406 99.1417 113.171 98.5042 112.936 97.8666" stroke="#5C5C5C" stroke-linecap="round" stroke-linejoin="round"/>
<path d="M96.9217 111.877C96.2079 114.711 94.3263 116.425 91.6498 117.355C90.5954 117.72 90.5913 117.704 88.2028 116.547" stroke="#5C5C5C" stroke-linecap="round" stroke-linejoin="round"/>
<path d="M68.129 44.0603C69.885 45.5953 71.5841 47.2399 74.212 46.9029" stroke="#5C5C5C" stroke-linecap="round" stroke-linejoin="round"/>
<path d="M126.931 83.4506V89.5418" stroke="#5C5C5C" stroke-linecap="round" stroke-linejoin="round"/>
<path d="M127.945 29.0351C129.23 31.0655 130.512 33.0959 131.797 35.1264" stroke="#5C5C5C" stroke-linecap="round" stroke-linejoin="round"/>
<path d="M218.175 282.432C216.147 283.111 214.12 283.785 212.092 284.463" stroke="#5C5C5C" stroke-linecap="round" stroke-linejoin="round"/>
<path d="M84.9585 111.267C87.2011 109.274 89.5451 110.723 91.8525 111.077C92.2702 111.142 92.6636 111.336 93.0691 111.47" stroke="#5C5C5C" stroke-linecap="round" stroke-linejoin="round"/>
<path d="M221.622 138.881C221.35 139.624 221.03 140.355 220.819 141.119C219.854 144.631 218.917 148.156 217.972 151.673" stroke="#5C5C5C" stroke-linecap="round" stroke-linejoin="round"/>
<path d="M107.06 26.5986C105.166 30.3224 103.272 34.0421 101.395 37.7741C101.354 37.8553 101.516 38.038 101.585 38.172" stroke="#5C5C5C" stroke-linecap="round" stroke-linejoin="round"/>
<path d="M69.7511 7.30953C69.666 6.56234 69.5849 5.81514 69.4997 5.06794C69.3091 5.0517 69.1185 5.0314 68.9279 5.01515C67.1639 6.99685 67.7519 9.66889 67.1152 11.9836" stroke="#5C5C5C" stroke-linecap="round" stroke-linejoin="round"/>
<path d="M76.0369 91.3692C75.9679 92.7215 75.83 94.0778 75.8909 95.426C75.903 95.7143 76.6452 95.9702 77.0507 96.2423" stroke="#5C5C5C" stroke-linecap="round" stroke-linejoin="round"/>
<path d="M157.143 285.681C156.535 287.578 155.926 289.47 155.318 291.366" stroke="#5C5C5C" stroke-linecap="round" stroke-linejoin="round"/>
<path d="M57.3825 50.3546C58.1246 51.0977 58.7532 52.1535 59.6494 52.4906C60.3996 52.7708 62.0948 53.2053 61.8433 51.1668" stroke="#5C5C5C" stroke-linecap="round" stroke-linejoin="round"/>
<path d="M57.5853 48.3242C58.4004 49.7617 59.2723 51.118 61.1052 50.6185C62.2286 50.1231 63.3559 49.6318 64.4793 49.1363" stroke="#5C5C5C" stroke-linecap="round" stroke-linejoin="round"/>
<path d="M191.207 123.247C193.101 124.668 195.084 125.988 196.84 127.56C197.574 128.213 197.83 129.407 198.304 130.353" stroke="#5C5C5C" stroke-linecap="round" stroke-linejoin="round"/>
<path d="M160.59 83.4505C158.157 83.1785 155.724 82.9104 153.29 82.6384" stroke="#5C5C5C" stroke-linecap="round" stroke-linejoin="round"/>
<path d="M78.0645 90.7601C77.7279 92.1124 77.221 93.4565 77.1196 94.825C77.0669 95.5438 77.7158 96.3113 78.1497 97.2981C79.3135 96.0798 80.1287 95.3042 78.8431 94.1509C78.5065 94.9387 78.1821 95.694 77.8617 96.4453" stroke="#5C5C5C" stroke-linecap="round" stroke-linejoin="round"/>
<path d="M85.9724 115.328C86.5766 117.627 88.4704 118.345 90.4332 118.983" stroke="#5C5C5C" stroke-linecap="round" stroke-linejoin="round"/>
<path d="M94.6913 85.684C95.8551 87.085 97.019 88.482 98.1991 89.8992C98.6979 89.5703 99.0264 89.355 99.2454 89.2088C101.63 90.1307 102.952 92.6768 105.641 92.9936" stroke="#5C5C5C" stroke-linecap="round" stroke-linejoin="round"/>
<path d="M61.8433 87.1053C62.1799 89.2698 62.5206 91.4382 62.8571 93.6027" stroke="#5C5C5C" stroke-linecap="round" stroke-linejoin="round"/>
<path d="M38.1198 85.684C39.5676 87.1581 41.1248 88.0759 43.3958 88.015C44.9368 87.9743 46.4859 88.9286 48.0634 89.3104C48.8866 89.5093 50.1154 90.3702 50.2857 88.5266" stroke="#5C5C5C" stroke-linecap="round" stroke-linejoin="round"/>
<path d="M96.5161 99.694C93.8031 101.091 90.932 101.148 88 100.709" stroke="#5C5C5C" stroke-linecap="round" stroke-linejoin="round"/>
<path d="M109.088 106.8C108.098 105.797 107.847 106.833 107.713 107.418C107.579 107.982 107.802 108.628 107.879 109.351C106.784 110.796 106.07 112.754 103.82 113.091" stroke="#5C5C5C" stroke-linecap="round" stroke-linejoin="round"/>
<path d="M141.53 112.892C140.18 113.675 138.375 113.749 136.664 113.095" stroke="#5C5C5C" stroke-linecap="round" stroke-linejoin="round"/>
<path d="M92.8664 5.27911C91.1104 5.34815 89.3504 5.41312 87.5945 5.48216" stroke="#5C5C5C" stroke-linecap="round" stroke-linejoin="round"/>
<path d="M101.585 46.9029C101.451 47.9871 101.289 49.0673 101.188 50.1515C101.131 50.7566 101.18 51.3698 101.18 51.9789" stroke="#5C5C5C" stroke-linecap="round" stroke-linejoin="round"/>
<path d="M92.2581 94.821C90.6359 95.093 89.0138 95.3529 87.3917 95.6372C86.532 95.7874 85.6763 95.9702 84.7801 95.8808C83.7541 96.4656 82.724 97.0544 81.6981 97.6392C81.8116 97.7732 81.9252 97.9113 82.0387 98.0453C82.2699 97.8504 82.497 97.6554 82.7281 97.4605" stroke="#5C5C5C" stroke-linecap="round" stroke-linejoin="round"/>
<path d="M103.207 4.87303C102.194 4.94206 101.18 5.02328 100.166 5.07201C98.6127 5.14917 97.0555 5.20602 95.5023 5.27911C93.2638 5.38876 91.9215 3.4964 90.0276 2.8426C89.764 2.75326 89.4883 2.70453 89.2166 2.6355" stroke="#5C5C5C" stroke-linecap="round" stroke-linejoin="round"/>
<path d="M193.438 142.333C192.83 144.026 192.221 145.716 191.613 147.409" stroke="#5C5C5C" stroke-linecap="round" stroke-linejoin="round"/>
<path d="M38.5253 84.4658C40.0785 85.55 41.6358 86.6302 43.1889 87.7144" stroke="#5C5C5C" stroke-linecap="round" stroke-linejoin="round"/>
<path d="M95.5023 5.48215C96.9054 6.82223 98.3491 8.14201 98.1382 10.3552" stroke="#5C5C5C" stroke-linecap="round" stroke-linejoin="round"/>
<path d="M161.198 86.4962C162.682 87.0322 161.932 85.3388 163.124 84.9774C161.064 84.7744 159.507 83.7592 157.954 85.0749" stroke="#5C5C5C" stroke-linecap="round" stroke-linejoin="round"/>
<path d="M118.009 37.5629C116.387 37.6969 114.765 37.835 113.143 37.969" stroke="#5C5C5C" stroke-linecap="round" stroke-linejoin="round"/>
<path d="M95.2995 84.8719C96.5851 86.2932 97.8665 87.7145 99.1521 89.1358" stroke="#5C5C5C" stroke-linecap="round" stroke-linejoin="round"/>
<path d="M103.613 86.0901C104.761 87.6454 105.912 89.2048 107.06 90.7601" stroke="#5C5C5C" stroke-linecap="round" stroke-linejoin="round"/>
<path d="M64.682 27.6138C65.12 27.3214 65.558 27.0291 66.0284 26.7164C65.5823 25.5184 65.6756 24.1499 64.0737 23.959" stroke="#5C5C5C" stroke-linecap="round" stroke-linejoin="round"/>
<path d="M58.5991 45.6846C59.6656 47.114 60.2699 48.978 62.2488 49.5424" stroke="#5C5C5C" stroke-linecap="round" stroke-linejoin="round"/>
<path d="M215.742 138.272C215.255 140.871 216.261 142.735 218.378 143.145" stroke="#5C5C5C" stroke-linecap="round" stroke-linejoin="round"/>
<path d="M138.488 107.004C137.982 106.752 137.475 106.496 136.854 106.187C135.775 107.109 134.786 107.95 133.796 108.794C135.439 110.89 136.55 110.447 138.894 106.8C140.719 106.999 142.544 107.194 144.446 107.401C144.685 108.067 144.932 108.754 145.18 109.44" stroke="#5C5C5C" stroke-linecap="round" stroke-linejoin="round"/>
<path d="M205.198 228.626C203.71 229.032 202.226 229.438 200.737 229.844" stroke="#5C5C5C" stroke-linecap="round" stroke-linejoin="round"/>
<path d="M42.1751 95.2271C41.9561 96.5956 41.7371 97.96 41.5019 99.4097C43.1524 101.785 46.0317 101.107 48.4608 101.716C51.3563 102.439 54.2721 103.081 57.1757 103.759" stroke="#5C5C5C" stroke-linecap="round" stroke-linejoin="round"/>
<path d="M64.4793 40.8116C64.682 41.0146 65.0997 41.2948 65.0551 41.4085C64.1792 43.7882 65.2984 45.8227 66.1014 47.9181" stroke="#5C5C5C" stroke-linecap="round" stroke-linejoin="round"/>
<path d="M108.682 5.07606C107.396 5.1451 106.115 5.23038 104.829 5.26692C104.428 5.27911 103.941 5.26692 103.625 5.05576C101.638 3.74004 99.7076 2.34717 97.7206 1.03145C97.2501 0.718768 96.65 0.609125 96.1106 0.406082" stroke="#5C5C5C" stroke-linecap="round" stroke-linejoin="round"/>
<path d="M61.4378 86.9023C59.7792 86.2769 58.1165 85.6556 56.0483 84.8759C55.7847 84.4211 55.3224 83.4871 54.7182 82.6546C54.4829 82.3298 53.9355 82.2283 53.53 82.0252" stroke="#5C5C5C" stroke-linecap="round" stroke-linejoin="round"/>
<path d="M100.369 52.7911H96.1106" stroke="#5C5C5C" stroke-linecap="round" stroke-linejoin="round"/>
<path d="M134.839 26.8016C135.719 28.1498 135.548 29.6036 135.244 31.0655" stroke="#5C5C5C" stroke-linecap="round" stroke-linejoin="round"/>
<path d="M164.645 22.1317H160.59" stroke="#5C5C5C" stroke-linecap="round" stroke-linejoin="round"/>
<path d="M50.2857 89.5418C51.0968 89.9479 51.8754 90.4434 52.727 90.7357C53.7773 91.1012 54.8723 91.3895 55.9712 91.5195C56.3403 91.5641 56.7782 91.0281 57.1838 90.756" stroke="#5C5C5C" stroke-linecap="round" stroke-linejoin="round"/>
<path d="M47.6498 83.6536C48.8542 84.75 50.0586 85.8505 51.2225 86.9104C51.7051 86.8657 52.1065 86.8292 52.7189 86.7723V88.3236" stroke="#5C5C5C" stroke-linecap="round" stroke-linejoin="round"/>
<path d="M204.59 122.232C203.239 122.772 201.885 123.316 200.535 123.856" stroke="#5C5C5C" stroke-linecap="round" stroke-linejoin="round"/>
<path d="M65.4931 41.6237C65.9351 43.3902 66.3771 45.1567 66.807 46.8826C66.5069 47.7638 66.2028 48.6531 65.8986 49.5424" stroke="#5C5C5C" stroke-linecap="round" stroke-linejoin="round"/>
<path d="M87.1889 49.7455C86.9051 50.4155 86.6171 51.0855 86.2319 51.9992C86.6577 52.4337 87.1281 52.917 87.5945 53.4002" stroke="#5C5C5C" stroke-linecap="round" stroke-linejoin="round"/>
<path d="M46.6359 80.811C47.7836 81.8953 48.9353 82.9754 50.0829 84.0597" stroke="#5C5C5C" stroke-linecap="round" stroke-linejoin="round"/>
<path d="M104.221 52.385C102.137 51.4998 101.346 51.8287 100.77 53.8063C100.669 54.1556 100.507 54.4845 100.369 54.8215" stroke="#5C5C5C" stroke-linecap="round" stroke-linejoin="round"/>
<path d="M68.5346 11.7765C65.5255 12.4993 62.8734 13.8475 60.8295 16.2434" stroke="#5C5C5C" stroke-linecap="round" stroke-linejoin="round"/>
<path d="M63.2627 36.7507C63.5993 37.969 63.9399 39.1872 64.2765 40.4055" stroke="#5C5C5C" stroke-linecap="round" stroke-linejoin="round"/>
<path d="M104.627 35.5325C102.721 37.4857 100.417 39.1385 99.7604 42.0298" stroke="#5C5C5C" stroke-linecap="round" stroke-linejoin="round"/>
<path d="M145.18 33.9081C143.963 33.636 142.747 33.368 141.53 33.0959" stroke="#5C5C5C" stroke-linecap="round" stroke-linejoin="round"/>
<path d="M69.3456 11.3704C70.5622 11.6425 71.7788 11.9105 72.9954 12.1826" stroke="#5C5C5C" stroke-linecap="round" stroke-linejoin="round"/>
<path d="M52.5161 102.74C52.3134 103.889 52.1106 105.042 51.9078 106.191" stroke="#5C5C5C" stroke-linecap="round" stroke-linejoin="round"/>
<path d="M103.41 25.7864C102.599 26.8707 101.788 27.9509 100.977 29.0351" stroke="#5C5C5C" stroke-linecap="round" stroke-linejoin="round"/>
<path d="M47.447 125.48C48.1242 126.565 48.7974 127.645 49.4747 128.729" stroke="#5C5C5C" stroke-linecap="round" stroke-linejoin="round"/>
<path d="M62.2488 88.1205C63.6033 88.6891 63.6398 90.0454 64.0737 91.1662" stroke="#5C5C5C" stroke-linecap="round" stroke-linejoin="round"/>
<path d="M134.839 31.4716C134.263 31.9752 133.687 32.4787 132.977 33.096C133.772 33.6442 134.405 34.0787 135.041 34.5173" stroke="#5C5C5C" stroke-linecap="round" stroke-linejoin="round"/>
<path d="M128.959 82.2323C128.825 83.3165 128.687 84.3967 128.553 85.481" stroke="#5C5C5C" stroke-linecap="round" stroke-linejoin="round"/>
<path d="M47.8525 82.0293H43.3917" stroke="#5C5C5C" stroke-linecap="round" stroke-linejoin="round"/>
<path d="M83.7419 102.943C83.1336 103.889 82.5253 104.839 81.9171 105.785" stroke="#5C5C5C" stroke-linecap="round" stroke-linejoin="round"/>
<path d="M216.553 150.049C216.959 151.742 217.364 153.431 217.77 155.125" stroke="#5C5C5C" stroke-linecap="round" stroke-linejoin="round"/>
<path d="M47.2442 101.724C46.6359 102.671 46.0277 103.621 45.4194 104.567" stroke="#5C5C5C" stroke-linecap="round" stroke-linejoin="round"/>
<path d="M128.756 28.0199C128.014 28.495 127.32 29.096 126.513 29.4128C124.733 30.1153 124.137 31.2848 124.688 33.096C124.765 33.3437 124.7 33.6361 124.7 33.9041" stroke="#5C5C5C" stroke-linecap="round" stroke-linejoin="round"/>
<path d="M67.1152 47.512C68.129 47.849 69.1429 48.1902 70.1567 48.5272" stroke="#5C5C5C" stroke-linecap="round" stroke-linejoin="round"/>
<path d="M80.9032 91.7753C80.6315 91.7063 80.1814 91.5114 80.1206 91.5926C79.6623 92.2301 79.2811 92.9245 78.8756 93.6027" stroke="#5C5C5C" stroke-linecap="round" stroke-linejoin="round"/>
<path d="M87.1889 114.313V112.892C89.172 113.554 90.9198 114.138 92.6636 114.719" stroke="#5C5C5C" stroke-linecap="round" stroke-linejoin="round"/>
<path d="M121.862 12.3856C122.198 13.3318 122.539 14.282 122.876 15.2282" stroke="#5C5C5C" stroke-linecap="round" stroke-linejoin="round"/>
<path d="M151.871 106.8C151.749 107.239 151.628 107.682 151.506 108.12C151.648 108.197 151.794 108.275 151.936 108.352C150.022 109.322 148.108 110.297 146.189 111.267" stroke="#5C5C5C" stroke-linecap="round" stroke-linejoin="round"/>
<path d="M196.885 124.668C196.954 125.614 197.019 126.565 197.088 127.511" stroke="#5C5C5C" stroke-linecap="round" stroke-linejoin="round"/>
<path d="M142.949 107.613V110.252" stroke="#5C5C5C" stroke-linecap="round" stroke-linejoin="round"/>
<path d="M81.3088 95.227C81.3939 94.0819 81.4791 92.9367 81.5642 91.7915C81.398 91.7428 81.2276 91.6941 81.0614 91.6454C80.5342 92.6362 80.0111 93.6271 79.4839 94.6179" stroke="#5C5C5C" stroke-linecap="round" stroke-linejoin="round"/>
<path d="M192.829 175.023C192.761 175.904 192.696 176.781 192.627 177.662" stroke="#5C5C5C" stroke-linecap="round" stroke-linejoin="round"/>
<path d="M150.452 108.222C149.665 106.415 148.424 106.528 146.591 107.475C147.37 108.38 147.998 109.115 148.627 109.846" stroke="#5C5C5C" stroke-linecap="round" stroke-linejoin="round"/>
<path d="M86.1751 92.9936C87.5255 93.3996 88.88 93.8057 90.2304 94.2118" stroke="#5C5C5C" stroke-linecap="round" stroke-linejoin="round"/>
<path d="M41.5668 102.334C40.7639 103.377 39.8393 102.837 38.9309 102.537" stroke="#5C5C5C" stroke-linecap="round" stroke-linejoin="round"/>
<path d="M136.055 85.278C135.313 85.9561 134.567 86.6302 133.825 87.3084" stroke="#5C5C5C" stroke-linecap="round" stroke-linejoin="round"/>
<path d="M55.9631 88.7297C56.097 89.6109 56.2348 90.488 56.3687 91.3692" stroke="#5C5C5C" stroke-linecap="round" stroke-linejoin="round"/>
<path d="M100.977 109.643C101.18 110.524 101.382 111.401 101.585 112.283" stroke="#5C5C5C" stroke-linecap="round" stroke-linejoin="round"/>
<path d="M96.5161 116.343L95.2995 118.78" stroke="#5C5C5C" stroke-linecap="round" stroke-linejoin="round"/>
<path d="M82.9309 113.501C82.9958 112.802 83.0647 112.1 83.1377 111.296C84.8247 111.929 86.1102 112.413 87.3917 112.892" stroke="#5C5C5C" stroke-linecap="round" stroke-linejoin="round"/>
<path d="M68.7373 8.93388C68.8063 10.7613 68.8712 12.5887 68.9401 14.416" stroke="#5C5C5C" stroke-linecap="round" stroke-linejoin="round"/>
<path d="M132.608 108.019C131.797 108.494 130.986 108.965 130.175 109.44" stroke="#5C5C5C" stroke-linecap="round" stroke-linejoin="round"/>
<path d="M57.5852 45.8877V47.5851C56.6647 48.4013 55.9064 49.0754 55.1521 49.7455" stroke="#5C5C5C" stroke-linecap="round" stroke-linejoin="round"/>
<path d="M56.5714 85.481C56.7053 86.2932 56.8431 87.1053 56.977 87.9175" stroke="#5C5C5C" stroke-linecap="round" stroke-linejoin="round"/>
<path d="M103.207 109.237C103.341 110.455 103.479 111.674 103.613 112.892" stroke="#5C5C5C" stroke-linecap="round" stroke-linejoin="round"/>
<path d="M139.908 107.207C139.774 108.356 139.636 109.509 139.502 110.658" stroke="#5C5C5C" stroke-linecap="round" stroke-linejoin="round"/>
<path d="M136.664 33.502C136.935 34.3142 137.203 35.1264 137.475 35.9386" stroke="#5C5C5C" stroke-linecap="round" stroke-linejoin="round"/>
<path d="M50.4885 84.4658C51.0197 85.5094 51.551 86.5571 52.1106 87.6535C52.8243 88.5835 53.5827 89.5703 54.341 90.557" stroke="#5C5C5C" stroke-linecap="round" stroke-linejoin="round"/>
<path d="M133.622 87.7144C133.488 88.4576 133.35 89.2048 133.217 89.9479" stroke="#5C5C5C" stroke-linecap="round" stroke-linejoin="round"/>
<path d="M57.788 85.8871V87.8119C57.5893 87.8688 57.1797 87.9906 56.7742 88.1124C56.9121 88.4576 57.0459 88.7987 57.1797 89.1358" stroke="#5C5C5C" stroke-linecap="round" stroke-linejoin="round"/>
<path d="M130.783 28.426C131.594 29.7133 132.406 30.9965 133.217 32.2838" stroke="#5C5C5C" stroke-linecap="round" stroke-linejoin="round"/>
<path d="M198.304 34.7203C197.627 34.6513 196.954 34.5863 196.276 34.5173" stroke="#5C5C5C" stroke-linecap="round" stroke-linejoin="round"/>
<path d="M106.046 111.064C105.592 109.546 104.882 108.474 103.001 109.022C101.192 109.55 99.3548 109.98 97.53 110.455" stroke="#5C5C5C" stroke-linecap="round" stroke-linejoin="round"/>
<path d="M93.4747 85.684C93.8802 86.3622 94.2857 87.0363 94.6912 87.7144" stroke="#5C5C5C" stroke-linecap="round" stroke-linejoin="round"/>
<path d="M130.378 88.7297C130.447 89.4078 130.512 90.0819 130.581 90.7601" stroke="#5C5C5C" stroke-linecap="round" stroke-linejoin="round"/>
<path d="M146.599 86.9023C146.125 87.5114 145.654 88.1205 145.18 88.7297" stroke="#5C5C5C" stroke-linecap="round" stroke-linejoin="round"/>
<path d="M105.032 109.846C105.101 110.524 105.166 111.198 105.235 111.877" stroke="#5C5C5C" stroke-linecap="round" stroke-linejoin="round"/>
<path d="M113.548 46.0907C112.871 46.0217 112.198 45.9567 111.521 45.8877" stroke="#5C5C5C" stroke-linecap="round" stroke-linejoin="round"/>
<path d="M224.664 280.402C223.986 280.536 223.313 280.674 222.636 280.808" stroke="#5C5C5C" stroke-linecap="round" stroke-linejoin="round"/>
<path d="M78.6728 97.4605C79.492 98.4554 80.5139 98.7072 81.7143 98.2727" stroke="#5C5C5C" stroke-linecap="round" stroke-linejoin="round"/>
<path d="M50.2857 102.334C49.5436 103.483 48.7974 104.636 48.0553 105.785" stroke="#5C5C5C" stroke-linecap="round" stroke-linejoin="round"/>
<path d="M92.6636 87.1053L93.8802 88.9327" stroke="#5C5C5C" stroke-linecap="round" stroke-linejoin="round"/>
<path d="M50.0829 52.182C49.8112 52.7911 49.5436 53.4002 49.2719 54.0094" stroke="#5C5C5C" stroke-linecap="round" stroke-linejoin="round"/>
<path d="M93.6774 5.27911C93.8113 5.88824 93.9491 6.49737 94.083 7.1065" stroke="#5C5C5C" stroke-linecap="round" stroke-linejoin="round"/>
<path d="M67.1152 12.3856C66.9895 12.9947 66.8638 13.6079 66.7137 14.3389C67.0057 14.5947 67.3666 14.9115 67.7235 15.2282" stroke="#5C5C5C" stroke-linecap="round" stroke-linejoin="round"/>
<path d="M144.774 107.41C146.737 107.15 145.695 108.697 145.991 109.44" stroke="#5C5C5C" stroke-linecap="round" stroke-linejoin="round"/>
<path d="M141.733 107.41C141.461 108.019 141.193 108.628 140.922 109.237" stroke="#5C5C5C" stroke-linecap="round" stroke-linejoin="round"/>
<path d="M138.286 84.0597C137.677 84.3318 137.069 84.5998 136.461 84.8719" stroke="#5C5C5C" stroke-linecap="round" stroke-linejoin="round"/>
<path d="M40.1475 100.506C40.845 101.501 41.5465 102.492 42.9862 102.334" stroke="#5C5C5C" stroke-linecap="round" stroke-linejoin="round"/>
<path d="M73.6037 14.416C73.5347 14.9561 73.4699 15.5003 73.4009 16.0404" stroke="#5C5C5C" stroke-linecap="round" stroke-linejoin="round"/>
<path d="M136.258 106.394C135.97 106.143 135.682 105.887 135.329 105.578C134.413 106.155 133.407 106.78 132.406 107.41" stroke="#5C5C5C" stroke-linecap="round" stroke-linejoin="round"/>
<path d="M100.369 3.24869C100.571 3.78878 100.774 4.33294 100.977 4.87303" stroke="#5C5C5C" stroke-linecap="round" stroke-linejoin="round"/>
<path d="M89.6221 114.11C89.4194 114.991 89.2166 115.868 89.0138 116.75" stroke="#5C5C5C" stroke-linecap="round" stroke-linejoin="round"/>
<path d="M159.779 86.0901C159.239 86.2241 158.696 86.3622 158.157 86.4962" stroke="#5C5C5C" stroke-linecap="round" stroke-linejoin="round"/>
<path d="M107.06 33.0959C106.521 33.636 105.977 34.1802 105.438 34.7203" stroke="#5C5C5C" stroke-linecap="round" stroke-linejoin="round"/>
<path d="M133.419 104.567C132.945 104.973 132.523 105.485 131.984 105.749C131.603 105.936 131.055 105.785 130.581 105.785" stroke="#5C5C5C" stroke-linecap="round" stroke-linejoin="round"/>
<path d="M78.0645 91.9783C78.1983 92.5184 78.3362 93.0626 78.47 93.6027" stroke="#5C5C5C" stroke-linecap="round" stroke-linejoin="round"/>
<path d="M123.687 190.251C123.147 190.32 122.604 190.385 122.065 190.454" stroke="#5C5C5C" stroke-linecap="round" stroke-linejoin="round"/>
<path d="M59.8157 34.9233V36.5721C60.0347 36.5436 60.2496 36.5111 60.4686 36.4827C60.3185 35.8939 60.1685 35.3091 60.0184 34.7203" stroke="#5C5C5C" stroke-linecap="round" stroke-linejoin="round"/>
<path d="M59.2074 104.364C58.7329 104.77 58.2625 105.176 57.788 105.582" stroke="#5C5C5C" stroke-linecap="round" stroke-linejoin="round"/>
<path d="M56.5714 49.1364L55.7604 49.9485" stroke="#5C5C5C" stroke-linecap="round" stroke-linejoin="round"/>
<path d="M95.7051 89.3388H94.2857" stroke="#5C5C5C" stroke-linecap="round" stroke-linejoin="round"/>
<path d="M51.5023 82.4353C51.6361 82.9105 51.774 83.3815 51.9078 83.8566" stroke="#5C5C5C" stroke-linecap="round" stroke-linejoin="round"/>
<path d="M136.055 33.0959C135.625 33.965 135.196 34.834 134.563 36.1172C134.413 35.3091 134.324 34.8137 134.23 34.3142" stroke="#5C5C5C" stroke-linecap="round" stroke-linejoin="round"/>
<path d="M87.3917 93.6027C87.0997 94.0575 86.8118 94.5123 86.4144 95.1377C85.9318 94.3783 85.7493 94.0941 85.5668 93.8057" stroke="#5C5C5C" stroke-linecap="round" stroke-linejoin="round"/>
<path d="M58.8018 87.1053C58.8708 87.5804 58.9357 88.0515 59.0046 88.5266" stroke="#5C5C5C" stroke-linecap="round" stroke-linejoin="round"/>
<path d="M219.189 153.094C219.055 153.569 218.917 154.04 218.783 154.516" stroke="#5C5C5C" stroke-linecap="round" stroke-linejoin="round"/>
<path d="M122.876 18.4769C122.742 18.883 122.604 19.2891 122.47 19.6952" stroke="#5C5C5C" stroke-linecap="round" stroke-linejoin="round"/>
<path d="M66.5069 9.74605L64.682 10.9643" stroke="#5C5C5C" stroke-linecap="round" stroke-linejoin="round"/>
<path d="M97.1244 89.1358C95.6523 90.3946 95.8308 88.3439 95.0968 88.1205" stroke="#5C5C5C" stroke-linecap="round" stroke-linejoin="round"/>
<path d="M134.23 106.597C133.882 107.109 133.533 107.625 133.192 108.128C132.474 107.678 131.931 107.341 131.392 107.003" stroke="#5C5C5C" stroke-linecap="round" stroke-linejoin="round"/>
<path d="M85.1613 115.125C86.3089 114.788 87.4606 114.447 88.6083 114.11" stroke="#5C5C5C" stroke-linecap="round" stroke-linejoin="round"/>
<path d="M88.8111 115.734C88.4745 115.868 88.1338 116.002 87.7688 116.149C87.6431 115.807 87.5174 115.466 87.3917 115.125" stroke="#5C5C5C" stroke-linecap="round" stroke-linejoin="round"/>
<path d="M115.373 46.6998C115.037 46.6308 114.696 46.5658 114.359 46.4968" stroke="#5C5C5C" stroke-linecap="round" stroke-linejoin="round"/>
<path d="M148.424 107.207C148.558 107.544 148.696 107.885 148.829 108.222" stroke="#5C5C5C" stroke-linecap="round" stroke-linejoin="round"/>
<path d="M132.811 30.4564C134.567 29.1732 133.411 31.3863 134.028 31.4716" stroke="#5C5C5C" stroke-linecap="round" stroke-linejoin="round"/>
<path d="M50.2857 87.5114C50.5574 87.7835 50.8251 88.0515 51.0968 88.3236" stroke="#5C5C5C" stroke-linecap="round" stroke-linejoin="round"/>
<path d="M137.272 109.44C137 109.915 136.733 110.386 136.461 110.861" stroke="#5C5C5C" stroke-linecap="round" stroke-linejoin="round"/>
<path d="M63.871 23.553C63.5993 23.419 63.3316 23.2809 63.0599 23.1469" stroke="#5C5C5C" stroke-linecap="round" stroke-linejoin="round"/>
<path d="M101.382 114.313C101.111 114.447 100.843 114.585 100.571 114.719" stroke="#5C5C5C" stroke-linecap="round" stroke-linejoin="round"/>
<path d="M107.465 91.5723L107.871 91.9784" stroke="#5C5C5C" stroke-linecap="round" stroke-linejoin="round"/>
</g>
<defs>
<clipPath id="clip0_11_806">
<rect width="264" height="347" fill="white"/>
</clipPath>
</defs>
</svg>
