<svg width="324" height="395" viewBox="0 0 324 395" fill="none" xmlns="http://www.w3.org/2000/svg">
<g clip-path="url(#clip0_9_642)">
<path d="M237.217 55.6747C239.378 55.7437 241.564 55.6462 243.701 55.9183C246.694 56.3 249.654 56.9538 252.627 57.5061C253.58 57.6848 254.715 57.636 255.437 58.1518C265.433 65.2867 274.724 73.116 280.195 84.5108C282.758 89.8467 284.542 95.4142 285.085 101.359C285.588 106.837 287.567 111.901 289.465 117.018C291.509 122.528 293.415 128.145 294.692 133.87C295.812 138.894 295.848 144.1 294.859 149.29C294.161 152.956 293.983 156.721 293.589 160.445C293.427 162 293.257 163.555 293.188 165.115C292.884 172.298 294.384 179.214 296.44 186.024C298.001 191.198 299.875 196.278 300.702 201.662C301.347 205.849 300.516 209.719 298.658 213.443C297.304 216.16 295.929 218.836 295.572 221.963C295.041 226.612 296.598 230.539 299.275 234.141C301.517 237.158 304.028 239.993 306.116 243.112C308.72 247.002 310.082 251.436 310.597 256.082C311.222 261.69 311.716 267.314 312.232 272.934C312.479 275.639 312.645 278.348 312.848 281.056" stroke="#5C5C5C" stroke-linecap="round" stroke-linejoin="round"/>
<path d="M194.839 50.3955C194.551 47.3661 195.301 44.6454 197.495 42.4972C198.886 41.1368 201.343 41.2261 203.351 42.4809C204.069 42.9276 204.758 43.4149 205.488 43.9063C206.303 43.4352 207.118 43.1997 207.585 42.6596C210.569 39.1916 214.089 40.284 217.54 41.486C223.846 43.6829 228.826 47.8778 233.579 52.4178C238.664 57.2746 243.665 62.2492 249.034 66.7811C253.572 70.6105 258.499 74.0013 263.394 77.3759C270.089 81.989 274.817 88.2508 278.54 95.2923C282.952 103.641 285.568 112.636 287.547 121.858C289.116 129.176 289.96 136.551 289.875 143.998C289.826 148.197 289.177 152.396 288.711 156.587C287.705 165.63 286.72 174.67 287.097 183.795C287.3 188.7 286.529 193.472 284.639 197.995C283.228 201.37 281.423 204.586 280.045 207.973C278.779 211.079 277.534 214.255 276.861 217.52C276.354 219.985 276.602 222.653 276.796 225.211C277.133 229.67 279.063 233.715 280.693 237.771C282.113 241.308 281.784 244.695 280.994 248.151C280.385 250.823 279.534 253.438 278.792 256.078" stroke="#5C5C5C" stroke-linecap="round" stroke-linejoin="round"/>
<path d="M248.166 145.216C250.802 149.407 252.696 153.96 254.147 158.65C254.589 160.075 254.277 162.106 253.547 163.442C252.022 166.244 250.08 168.843 248.129 171.381C246.974 172.883 245.562 174.239 244.086 175.441C241.118 177.862 239.451 180.989 238.405 184.599C237.436 187.949 236.284 191.246 235.181 194.552C233.036 200.984 227.902 203.396 221.798 203.591C215.464 203.79 209.515 205.406 203.562 207.177C197.584 208.952 191.651 210.669 185.301 210.45C183.013 210.369 180.71 211.108 178.407 211.169C174.319 211.278 170.166 211.522 166.257 209.955C164.752 209.354 163.301 208.505 162.003 207.526C157.935 204.46 158.459 200.359 161.208 196.002C163.053 193.074 165.799 190.97 168.666 189.062C169.011 188.834 169.217 188.4 169.485 188.063" stroke="#5C5C5C" stroke-linecap="round" stroke-linejoin="round"/>
<path d="M307.779 187.449C309.072 183.352 309.762 179.137 309.356 174.865C308.878 169.768 307.953 164.725 306.351 159.836C303.732 151.844 301.217 143.815 298.403 135.893C296.469 130.443 295.147 124.855 294.039 119.215C293.468 116.295 293.265 113.274 293.212 110.289C293.095 103.796 293.127 97.2943 293.188 90.797C293.257 83.4996 290.398 77.518 285.045 72.7465C277.547 66.0583 268.682 61.8918 259.107 59.1223" stroke="#5C5C5C" stroke-linecap="round" stroke-linejoin="round"/>
<path d="M108.258 78.0094C109.515 79.1139 108.278 80.1332 107.994 81.0347C106.851 84.6651 105.342 88.1859 104.251 91.8285C103.566 94.1147 103.343 96.5431 102.994 98.9228C102.621 101.477 101.68 103.845 100.099 105.79C97.4831 109.006 96.2138 112.25 96.9843 116.608C97.8968 121.789 96.2057 126.748 93.8536 131.41C90.9825 137.095 89.4212 143.076 89.8105 149.48C90.0214 152.936 90.3823 156.384 90.5972 159.836C90.7635 162.483 90.3053 165.005 89.4658 167.576C88.2249 171.381 88.5047 175.413 89.0359 179.324C89.6807 184.05 90.2769 188.757 90.2323 193.545C90.2079 195.981 90.3701 198.43 90.6418 200.85C90.8527 202.718 92.0531 204.119 93.4481 205.321C96.4288 207.884 99.9447 209.48 103.59 210.791C107.93 212.355 112.386 213.378 116.957 214.125C122.302 214.998 127.634 215.088 132.983 214.815C135.834 214.673 138.657 213.808 141.503 213.711C144.399 213.609 147.315 214.024 150.218 214.263C152.116 214.418 154.006 214.661 155.896 214.864" stroke="#5C5C5C" stroke-linecap="round" stroke-linejoin="round"/>
<path d="M213.29 113.542C217.455 113.221 221.45 113.745 224.824 116.417C226.389 117.655 227.792 119.142 229.086 120.669C232.257 124.405 235.392 128.177 238.417 132.035C243.056 137.948 245.072 144.575 243.725 152.128C242.874 156.9 240.457 160.794 236.758 163.628C232.216 167.109 229.722 171.718 227.881 176.895C227.395 178.268 226.827 179.612 226.263 180.956C225.521 182.727 224.365 184.03 222.658 185.086C220.594 186.365 218.866 188.18 216.932 189.679C214.324 191.693 211.603 191.746 208.61 190.337C203.74 188.038 198.728 186.04 193.841 183.766C192.174 182.991 190.714 181.772 189.161 180.757" stroke="#5C5C5C" stroke-linecap="round" stroke-linejoin="round"/>
<path d="M190.581 66.0298C194.32 68.7993 198.42 70.3303 203.148 70.5577C208.931 70.8379 214.556 71.7963 219.41 75.5241C222.346 77.7779 223.425 82.4316 222.841 85.729C221.977 90.5777 221.717 95.5076 222.695 100.328C223.343 103.528 225.846 105.526 228.688 107.065C231.312 108.482 233.989 109.993 235.152 112.949C236.138 115.45 237.062 118.029 237.569 120.661C238.628 126.183 240.826 131.239 243.555 136.051C245.445 139.385 247.862 142.423 249.971 145.639C250.579 146.565 250.769 147.787 251.447 148.644C252.955 150.552 254.65 152.315 256.447 153.968C256.865 154.91 257.258 155.86 257.7 156.79C259.14 159.807 259.046 162.772 257.505 165.732C257.092 166.524 256.828 167.389 256.524 168.148C259.127 169.72 260.904 167.567 263.613 167.502C264.091 168.246 264.809 169.362 265.247 170.049C268.58 169.992 269.16 167.896 270.069 166.134C270.223 165.838 270.466 165.59 270.669 165.318" stroke="#5C5C5C" stroke-linecap="round" stroke-linejoin="round"/>
<path d="M255.668 240.647C255.38 245.974 258.049 250.129 260.908 254.275C262.777 256.992 264.578 259.818 265.952 262.807C268.13 267.538 267.42 272.431 265.79 277.19C264.205 281.811 263.008 286.457 263.138 291.411C263.207 294.047 263.345 296.808 262.668 299.302C261.548 303.444 258.466 306.185 254.886 308.508C249.005 312.321 242.428 314.465 236 316.991C230.615 319.106 225.375 321.498 220.809 325.133C219.957 325.811 219.308 326.737 218.562 327.549" stroke="#5C5C5C" stroke-linecap="round" stroke-linejoin="round"/>
<path d="M261.548 186.231C264.115 185.147 266.662 184.002 269.262 183.003C271.456 182.162 273.735 181.553 275.933 180.717C276.679 180.432 277.283 179.783 277.964 179.291C280.223 188.501 279.185 194.471 275.738 204.298C273.881 209.589 271.849 214.824 270.097 220.147C268.434 225.207 267.931 230.47 268.475 235.769C268.945 240.35 270.73 244.573 272.956 248.533C274.615 251.481 276.756 254.157 278.775 257.089C278.654 258.38 278.516 259.867 278.378 261.357" stroke="#5C5C5C" stroke-linecap="round" stroke-linejoin="round"/>
<path d="M276.147 183.592C275.405 186.365 274.805 189.191 273.889 191.908C271.679 198.438 269.164 204.862 267.072 211.425C265.231 217.203 264.476 223.116 265.105 229.288C265.762 235.717 266.914 241.962 269.282 247.948C271.679 254.003 274.821 259.716 280.268 263.501C283.155 265.507 286.663 266.636 289.944 268.045C294.554 270.023 299.032 272.187 303.144 275.131C306.372 277.442 309.847 279.411 313.253 281.556C314.389 293.3 317.305 304.702 321.571 315.776" stroke="#5C5C5C" stroke-linecap="round" stroke-linejoin="round"/>
<path d="M146.378 319.833C145.599 314.871 144.415 310.006 141.876 305.645C139.841 302.144 137.472 298.843 135.218 295.472C133.531 292.95 131.99 290.396 131.304 287.363C131.13 286.587 130.25 285.864 129.528 285.336C122.188 279.984 113.887 276.711 105.2 274.384C99.9771 272.987 94.6931 271.761 89.3847 270.733C82.1663 269.332 74.8383 268.719 67.4942 268.484C65.134 268.411 62.7657 268.597 60.3974 268.666" stroke="#5C5C5C" stroke-linecap="round" stroke-linejoin="round"/>
<path d="M256.682 190.292C256.005 191.579 255.242 192.826 254.667 194.158C250.737 203.266 245.583 211.741 241.126 220.578C239.342 224.115 237.691 227.887 236.929 231.737C235.676 238.08 237.521 243.591 243.072 247.578C246.937 250.356 251.053 252.537 255.68 253.58C257.079 253.897 258.641 253.503 260.129 253.438" stroke="#5C5C5C" stroke-linecap="round" stroke-linejoin="round"/>
<path d="M151.65 141.765C148.195 148.254 148.304 155.166 149.679 162.057C151.394 170.658 152.806 179.238 152.728 188.059C152.676 194.065 154.797 199.644 157.591 204.879C158.734 207.023 160.64 208.749 161.962 210.816C163.933 213.89 167.352 215.4 169.55 218.267C171.874 221.297 174.737 223.908 177.178 226.856C181.383 231.932 185.532 237.061 189.502 242.32C190.366 243.461 190.763 245.26 190.719 246.734C190.536 253.032 190.11 259.322 189.77 265.617C189.502 270.624 189.173 275.631 188.995 280.642C188.95 281.917 189.364 283.212 189.567 284.5" stroke="#5C5C5C" stroke-linecap="round" stroke-linejoin="round"/>
<path d="M200.313 61.969C201.867 62.3751 203.432 63.1548 204.977 63.1223C211.117 62.9842 216.81 64.3893 221.324 68.5516C224.296 71.2927 226.673 74.7323 229.07 78.0378C231.985 82.058 234.382 86.4844 237.48 90.3462C242.152 96.1695 247.116 101.733 252.554 106.919C258.742 112.819 264.545 119.154 270.223 125.562C276.419 132.555 280.45 140.847 282.539 149.911C283.674 154.845 284.582 159.957 283.65 165.119" stroke="#5C5C5C" stroke-linecap="round" stroke-linejoin="round"/>
<path d="M252.221 106.435C251.074 104.336 250.116 102.102 248.742 100.165C241.714 90.2366 234.658 80.324 227.447 70.5252C224.491 66.509 221.117 62.8015 216.944 59.9345C213.509 57.5751 209.945 57.1325 206.206 59.1426C205.934 59.2888 205.792 59.6665 205.589 59.9386" stroke="#5C5C5C" stroke-linecap="round" stroke-linejoin="round"/>
<path d="M144.756 136.283C144.65 141.728 145.879 147.024 146.848 152.311C148.649 162.142 149.095 172.03 148.762 181.963C148.592 187.023 148.762 191.969 150.413 196.793C150.51 197.074 150.299 197.463 150.23 197.801" stroke="#5C5C5C" stroke-linecap="round" stroke-linejoin="round"/>
<path d="M195.041 63.9994C198.083 67.5486 202.134 68.4785 206.591 68.9415C214.101 69.7212 220.647 72.6084 225.72 78.5657C227.537 80.6977 227.261 82.7849 226.62 84.9006C224.649 91.398 226.077 97.1035 230.335 102.159C235.015 107.719 237.513 114.326 239.865 121.05C242.484 128.539 245.068 136.039 249.756 142.597C252.116 145.899 255.173 147.921 259.115 148.636C259.407 148.689 259.784 148.262 260.121 148.059" stroke="#5C5C5C" stroke-linecap="round" stroke-linejoin="round"/>
<path d="M276.553 180.952C275.742 182.71 275.239 184.721 274.063 186.186C270.255 190.917 265.535 194.499 259.963 197.07C257.258 198.316 254.561 200.03 252.529 202.166C250.51 204.286 249.553 207.185 249.533 210.393C249.476 219.079 251.698 227.23 254.383 235.392C257.501 244.87 263.604 251.712 271.691 257.093C273.033 257.986 274.392 258.855 275.746 259.733" stroke="#5C5C5C" stroke-linecap="round" stroke-linejoin="round"/>
<path d="M119.613 251.002C122.788 257.751 128.255 262.535 133.563 267.489C135.757 269.535 137.785 271.879 139.419 274.392C141.905 278.218 145.1 280.967 149.196 282.916C154.837 285.6 160.527 288.228 165.438 292.215C171.598 297.218 176.971 302.895 180.828 309.896C181.351 310.847 181.655 311.919 182.06 312.934" stroke="#5C5C5C" stroke-linecap="round" stroke-linejoin="round"/>
<path d="M197.88 63.5933C199.417 64.8441 201.193 65.1568 203.152 65.2542C209.758 65.5872 216.113 67.1872 221.547 70.9881C225.408 73.6886 227.638 77.9484 229.99 82.0296C231.701 85.0062 231.961 88.3158 232.618 91.4386C234.025 98.1309 236.572 104.275 239.634 110.301C242.703 116.344 245.453 122.553 248.632 128.535C250.623 132.287 253.053 135.832 256.487 138.512" stroke="#5C5C5C" stroke-linecap="round" stroke-linejoin="round"/>
<path d="M97.3088 175.47C98.8619 174.455 100.318 173.188 102.005 172.505C103.331 171.969 105.022 171.791 106.417 172.087C110.647 172.981 114.868 174.008 118.984 175.32C122.784 176.53 125.98 178.958 129.317 181.066C129.273 181.232 129.228 181.399 129.183 181.565C127.411 181.902 125.651 182.455 123.867 182.54C117.853 182.824 111.892 182.658 106.214 180.168C104.126 179.255 101.867 178.735 99.746 177.886C96.9681 176.773 95.8042 175.547 97.9819 172.063C100.083 168.7 102.954 165.923 107.244 165.565C108.777 165.435 110.351 165.797 111.904 165.927C113.526 166.065 115.221 166.556 116.754 166.252C119.142 165.777 120.902 166.674 122.65 167.961C126.385 170.719 129.029 174.463 131.779 178.109" stroke="#5C5C5C" stroke-linecap="round" stroke-linejoin="round"/>
<path d="M274.12 186.434C272.972 189.074 271.889 191.746 270.661 194.349C266.954 202.211 262.874 209.898 259.894 218.101C258.118 222.994 256.812 227.96 256.264 233.138C256.126 234.429 255.867 235.713 255.664 236.996" stroke="#5C5C5C" stroke-linecap="round" stroke-linejoin="round"/>
<path d="M165.032 328.361C167.125 321.555 165.032 315.634 161.18 310.087C156.699 303.63 150.385 299.277 143.953 295.054C140.003 292.459 136.11 289.779 132.18 287.156C132.038 287.062 131.783 287.143 131.58 287.143" stroke="#5C5C5C" stroke-linecap="round" stroke-linejoin="round"/>
<path d="M114.341 214.048C115.627 214.791 116.827 215.912 118.206 216.221C126.016 217.955 129.865 223.416 132.201 230.49C133.462 234.312 134.743 238.137 136.28 241.849C137.773 245.442 140.55 248.058 143.75 250.173C145.615 251.408 146.398 251.026 147.619 249.191C150.137 245.406 152.14 241.426 153.304 237C153.909 234.71 154.716 232.44 155.742 230.308C157.331 227.01 160.304 225.089 163.406 223.384" stroke="#5C5C5C" stroke-linecap="round" stroke-linejoin="round"/>
<path d="M123.06 73.1363C120.655 70.7891 119.97 67.845 119.998 64.6085C120.006 63.5852 119.779 62.5578 119.653 61.4939C117.958 60.9862 116.462 60.5355 115.026 60.105C109.499 63.0938 105.16 73.9607 107.857 77.1647C106.198 80.5677 104.539 83.8367 103.006 87.1585C101.964 89.4163 100.748 91.6782 100.249 94.0741C99.7784 96.3441 100.099 98.7928 100.176 101.16C100.2 101.912 100.553 102.651 100.756 103.394" stroke="#5C5C5C" stroke-linecap="round" stroke-linejoin="round"/>
<path d="M231.742 85.928C233.433 88.9737 235.124 92.0193 236.811 95.065C241.998 104.425 247.955 113.29 254.042 122.07C255.206 123.751 256.341 125.452 257.493 127.146" stroke="#5C5C5C" stroke-linecap="round" stroke-linejoin="round"/>
<path d="M271.281 308.869C267.834 309.275 264.391 309.714 260.94 310.079C257.396 310.453 254.516 312.223 251.828 314.363C249.35 316.337 246.978 318.444 244.512 320.43C242.497 322.05 241.454 323.939 242.497 326.53C244.188 330.749 242.363 334.347 240.453 337.896C237.699 343.017 234.195 347.739 232.362 353.335C231.904 354.74 231.543 356.174 231.138 357.595" stroke="#5C5C5C" stroke-linecap="round" stroke-linejoin="round"/>
<path d="M144.35 65.2177C145.295 62.6472 146.662 60.1375 147.051 57.4817C147.343 55.4838 146.625 53.2179 145.916 51.228C144.829 48.1743 144.066 45.1164 143.912 41.8678C143.835 40.2353 143.519 38.5866 143.109 36.9988C142.213 33.5186 139.808 31.5045 136.24 31.1146C135.031 30.9847 133.806 30.9684 132.59 30.9035" stroke="#5C5C5C" stroke-linecap="round" stroke-linejoin="round"/>
<path d="M201.327 273.133C202.41 275.298 203.712 277.385 204.531 279.647C206.992 286.449 208.189 293.511 208.209 300.747C208.217 304.199 208.12 307.651 207.986 311.102C207.966 311.655 207.479 312.187 207.211 312.727" stroke="#5C5C5C" stroke-linecap="round" stroke-linejoin="round"/>
<path d="M190.986 246.941C192.203 250.121 193.391 253.312 194.64 256.48C196.643 261.564 198.898 266.563 200.646 271.736C201.838 275.261 202.544 278.989 203.107 282.685C204.081 289.089 204.77 295.537 205.589 301.965C206.056 305.62 206.672 309.263 206.952 312.934C207.11 315.009 206.749 317.129 206.595 319.224C206.177 324.926 205.285 330.57 203.095 335.853C200.557 341.973 197.763 347.999 194.79 353.924C191.955 359.577 188.752 365.047 185.71 370.598" stroke="#5C5C5C" stroke-linecap="round" stroke-linejoin="round"/>
<path d="M161.585 29.4821C164.055 33.5349 163.398 37.7419 162.437 42.0789C160.876 49.1164 157.392 55.0655 152.903 60.5761C151.338 62.4969 149.788 64.5679 149.622 67.2481" stroke="#5C5C5C" stroke-linecap="round" stroke-linejoin="round"/>
<path d="M140.092 122.679C138.807 128.295 137.262 133.87 136.309 139.543C135.201 146.126 134.463 152.782 133.888 159.438C133.669 161.968 134.22 164.595 134.666 167.137C134.946 168.725 135.854 170.097 137.456 170.8" stroke="#5C5C5C" stroke-linecap="round" stroke-linejoin="round"/>
<path d="M188.553 65.2177C186.497 65.3923 185.001 66.4887 183.443 67.8085C178.893 71.6663 174.157 75.3008 169.493 79.0246C167.011 81.0063 164.379 82.7565 162.737 85.6884C161.634 87.6539 161.366 89.7574 160.766 91.8163C160.543 92.5757 160.235 93.3066 159.963 94.0538" stroke="#5C5C5C" stroke-linecap="round" stroke-linejoin="round"/>
<path d="M107.853 181.764C109.759 185.837 108.534 189.305 105.837 192.534C104.353 194.308 102.775 196.054 101.615 198.032C99.4621 201.711 100.618 204.18 102.808 207.327C104.251 209.402 106.559 210.235 108.862 211.019C109.884 211.364 110.833 211.92 111.961 212.444C112.22 216.602 112.196 220.643 112.792 224.59C113.506 229.305 114.678 233.958 115.797 238.604C116.267 240.549 117.115 242.401 117.792 244.297" stroke="#5C5C5C" stroke-linecap="round" stroke-linejoin="round"/>
<path d="M184.092 41.0556C185.576 41.4251 185.674 42.8221 186.1 43.9063C187.126 46.5134 188.042 49.1651 189.149 52.1945C190.126 51.8778 191.156 51.5082 192.207 51.2159C194.024 50.7123 195.832 50.0951 197.686 49.8311C199.555 49.5672 201.489 49.7052 203.148 50.8098C206.344 52.9377 209.62 55.0006 213.501 55.4107C216.376 55.7153 219.308 55.4716 222.212 55.4716C226.198 55.4716 230.189 55.4798 234.175 55.4635C234.852 55.4635 235.526 55.3376 236.203 55.2686" stroke="#5C5C5C" stroke-linecap="round" stroke-linejoin="round"/>
<path d="M117.991 243.083C118.194 244.435 118.291 245.816 118.619 247.14C119.556 250.9 119.353 254.73 119.159 258.514C118.79 265.641 120.517 271.883 125.44 277.247C127.265 279.237 128.49 281.787 129.934 284.114C130.165 284.488 130.092 285.048 130.161 285.523" stroke="#5C5C5C" stroke-linecap="round" stroke-linejoin="round"/>
<path d="M201.733 277.803C199.977 278.482 198.176 279.07 196.473 279.862C195.187 280.459 193.736 281.076 192.86 282.108C189.186 286.445 184.246 288.264 179.035 289.832C175.706 290.835 172.526 292.337 169.294 293.653C168.97 293.787 168.747 294.177 168.475 294.445" stroke="#5C5C5C" stroke-linecap="round" stroke-linejoin="round"/>
<path d="M144.553 137.907C144.147 137.854 143.738 137.805 143.219 137.74C143.081 138.017 142.793 138.354 142.744 138.723C142.177 143.324 141.694 147.933 141.094 152.526C140.319 158.418 139.03 164.181 136.442 169.582" stroke="#5C5C5C" stroke-linecap="round" stroke-linejoin="round"/>
<path d="M133.604 36.9947C134.212 38.8912 134.934 40.7591 135.404 42.6881C136.232 46.0829 136.722 49.4778 136.317 53.0473C135.956 56.2554 136.033 59.5528 136.3 62.7812C136.552 65.8065 138.502 67.2522 141.512 67.2522" stroke="#5C5C5C" stroke-linecap="round" stroke-linejoin="round"/>
<path d="M276.756 175.876C274.254 178.101 271.078 178.836 268.065 180.01C265.494 181.009 263.215 182.735 260.725 183.977C257.347 185.663 254.516 185.476 251.633 183.364C249.581 181.866 249.37 180.708 250.198 178.317C250.457 177.569 250.737 176.826 251.009 176.083" stroke="#5C5C5C" stroke-linecap="round" stroke-linejoin="round"/>
<path d="M158.138 37.1978C158.122 40.9419 156.593 44.2759 155.052 47.5327C152.931 52.0158 150.498 56.3528 148.203 60.7507C146.84 63.3578 146.625 65.9405 148.406 68.4664" stroke="#5C5C5C" stroke-linecap="round" stroke-linejoin="round"/>
<path d="M188.959 237.804C189.417 230.498 187.697 223.794 183.954 217.463C181.683 213.622 178.196 212.46 174.363 212.537C170.572 212.614 166.853 212.887 163.207 211.611" stroke="#5C5C5C" stroke-linecap="round" stroke-linejoin="round"/>
<path d="M138.065 121.054C136.848 124.031 135.558 126.983 134.435 129.996C133.425 132.705 132.497 135.41 131.008 137.931C129.029 141.286 127.594 144.9 126.466 148.656C125.643 151.409 125.047 151.828 122.245 151.73C119.747 151.645 117.236 151.612 114.747 151.767C113.915 151.819 112.808 152.335 112.411 152.989C112.107 153.493 112.472 154.772 112.97 155.32C113.996 156.449 114.669 158.142 116.519 158.256C117.76 157.302 118.238 155.162 120.424 155.978" stroke="#5C5C5C" stroke-linecap="round" stroke-linejoin="round"/>
<path d="M119.816 58.7203C116.113 56.7386 113.956 56.7792 111.713 58.9315C110.922 59.6909 110.083 60.4624 109.499 61.3761C107.674 64.2431 105.464 67.0004 104.328 70.1354C102.97 73.8876 103.375 75.512 107.037 78.0094" stroke="#5C5C5C" stroke-linecap="round" stroke-linejoin="round"/>
<path d="M188.147 179.937C183.618 176.079 179.12 172.189 174.55 168.376C172.263 166.467 169.594 166.093 166.646 166.479C164.448 166.767 162.181 166.536 159.947 166.536C159.886 166.357 159.821 166.179 159.76 166C160.369 165.163 160.924 164.282 161.593 163.498C162.907 161.963 163.532 160.132 163.771 158.203C163.925 156.961 164.039 155.787 162.226 155.072C159.31 153.923 158.84 151.084 158.747 148.258C158.718 147.381 158.799 146.496 158.73 145.619C158.568 143.519 159.063 141.724 160.758 140.327C161.829 139.446 162.798 138.443 163.812 137.497" stroke="#5C5C5C" stroke-linecap="round" stroke-linejoin="round"/>
<path d="M136.24 170.394C136.511 171.543 136.657 172.741 137.071 173.837C140.112 181.91 143.864 189.618 149.014 196.586C149.561 197.325 150.137 198.048 150.632 198.824C152.984 202.503 154.079 206.738 155.186 210.832C156.946 217.341 160.632 221.885 166.667 224.59C170.811 226.45 175.041 228.127 179.23 229.889" stroke="#5C5C5C" stroke-linecap="round" stroke-linejoin="round"/>
<path d="M282.028 265.012C282.839 265.958 283.617 266.941 284.469 267.846C285.584 269.028 286.833 270.092 287.896 271.318C291.132 275.054 290.629 278.453 286.488 281.255C283.605 283.204 280.333 283.655 276.959 283.696" stroke="#5C5C5C" stroke-linecap="round" stroke-linejoin="round"/>
<path d="M248.166 316.991C243.94 318.249 240.307 320.369 238.04 324.308C234.986 329.612 230.327 332.503 224.446 333.652C224.227 333.697 224.037 333.912 223.834 334.046" stroke="#5C5C5C" stroke-linecap="round" stroke-linejoin="round"/>
<path d="M172.737 212.83C175.657 214.247 178.39 215.944 180.434 218.523C183.881 222.876 186.254 227.79 187.746 233.134C187.92 233.751 188.147 234.352 188.35 234.961" stroke="#5C5C5C" stroke-linecap="round" stroke-linejoin="round"/>
<path d="M208.424 208.972C202.747 210.19 197.073 211.433 191.388 212.615C189.105 213.09 186.793 213.439 184.498 213.845" stroke="#5C5C5C" stroke-linecap="round" stroke-linejoin="round"/>
<path d="M105.217 131.613C104 132.9 102.747 134.151 101.579 135.483C100.829 136.339 100.074 137.18 100.922 138.54C101.729 139.836 102.913 140.287 104.203 140.311C108.059 140.384 111.498 138.955 114.292 136.433C116.482 134.459 118.242 132.002 120.294 129.647C119.43 127.008 116.863 125.708 115.152 123.698" stroke="#5C5C5C" stroke-linecap="round" stroke-linejoin="round"/>
<path d="M132.387 136.08C132.253 137.976 132.168 139.876 131.973 141.765C131.369 147.592 132.099 153.322 133.214 159.023C133.247 159.178 133.47 159.295 133.608 159.434" stroke="#5C5C5C" stroke-linecap="round" stroke-linejoin="round"/>
<path d="M135.834 171.003C133.79 174.422 131.767 177.87 130.785 181.768C129.366 187.421 131.734 191.1 136.852 193.122C139.058 193.995 141.309 194.755 143.539 195.567" stroke="#5C5C5C" stroke-linecap="round" stroke-linejoin="round"/>
<path d="M174.359 72.5272C171.387 75.0328 168.268 77.3881 165.47 80.0763C161.553 83.8367 158.868 88.2671 159.558 94.0497" stroke="#5C5C5C" stroke-linecap="round" stroke-linejoin="round"/>
<path d="M187.134 179.328C185.175 178.991 183.115 178.926 181.274 178.252C178.09 177.086 175.061 177.037 171.699 177.577C167.867 178.195 163.881 177.825 159.959 177.919C159.039 177.943 158.118 178.109 157.307 178.199C155.912 181.143 157.116 183.328 158.487 185.094C160.876 186.288 162.932 187.315 165.085 188.392C165.361 188.944 165.701 189.618 166.042 190.296" stroke="#5C5C5C" stroke-linecap="round" stroke-linejoin="round"/>
<path d="M164.829 137.501C165.482 139.775 167.486 140.534 169.278 141.582C170.56 142.329 171.736 143.255 172.822 144.006C172.628 145.781 171.549 146.224 170.499 146.398C168.832 146.674 167.121 146.658 165.438 146.853C163.605 147.068 161.788 147.381 159.963 147.653" stroke="#5C5C5C" stroke-linecap="round" stroke-linejoin="round"/>
<path d="M116.774 76.9942C116.397 75.9018 116.024 74.8054 115.594 73.5627C112.861 75.6135 111.308 78.3952 110.132 81.2784C107.926 86.6874 106.032 92.2264 103.984 97.7005C103.818 98.1472 103.457 98.5167 103.185 98.9228" stroke="#5C5C5C" stroke-linecap="round" stroke-linejoin="round"/>
<path d="M159.963 80.2428C158.414 86.5209 157.765 92.9371 156.873 99.3207C156.585 101.396 155.685 103.382 155.109 105.424C154.902 106.147 154.87 106.923 154.675 107.65C154.561 108.08 154.391 108.677 154.067 108.839C151.431 110.171 150.109 112.636 148.6 114.959C148.182 115.605 147.663 116.181 147.189 116.791" stroke="#5C5C5C" stroke-linecap="round" stroke-linejoin="round"/>
<path d="M221.806 287.346C220.862 291.407 219.848 295.456 218.988 299.533C218.291 302.83 217.775 306.164 216.835 309.563C216.733 309.198 216.526 308.824 216.551 308.463C216.887 303.204 215.663 298.307 213.307 293.633C212.406 291.85 211.668 289.986 210.857 288.159" stroke="#5C5C5C" stroke-linecap="round" stroke-linejoin="round"/>
<path d="M280.203 179.734C280.945 177.297 281.594 174.824 282.458 172.432C283.605 169.257 283.784 166.244 282.307 163.048C281.59 161.496 281.541 159.572 281.452 157.801C281.273 154.301 280.365 151.032 278.556 148.071C276.772 145.147 273.106 143.864 269.866 144.81C268.305 145.265 266.759 145.769 264.959 146.329C262.201 144.043 259.346 141.675 256.564 139.373C257.148 135.95 257.757 132.563 258.272 129.164C258.357 128.587 258.032 127.95 257.899 127.341" stroke="#5C5C5C" stroke-linecap="round" stroke-linejoin="round"/>
<path d="M125.899 51.4108C126.438 54.3224 126.973 57.234 127.521 60.1416C128.003 62.6959 128.234 65.3233 130.343 67.2643C132.01 68.7912 134.423 69.4653 136.033 68.6735" stroke="#5C5C5C" stroke-linecap="round" stroke-linejoin="round"/>
<path d="M183.281 54.2534C181.079 52.7874 177.364 53.2179 175.004 55.5082C173.532 56.9376 172.21 58.6066 171.156 60.369C168.759 64.373 165.685 67.7273 161.979 70.4805C155.851 75.0328 152.388 81.3433 150.064 88.3767C149.172 91.0813 148.661 93.9117 148.02 96.6934C147.935 97.0629 148.134 97.5015 148.203 97.9076" stroke="#5C5C5C" stroke-linecap="round" stroke-linejoin="round"/>
<path d="M131.779 30.9035C132.675 32.5481 133.474 34.2212 133.389 36.4019C134.18 36.678 135.21 37.0394 136.24 37.4008C139.492 38.55 140.753 41.2343 141.045 44.3083C141.325 47.2606 141.106 50.2575 141.106 53.2382V55.4716" stroke="#5C5C5C" stroke-linecap="round" stroke-linejoin="round"/>
<path d="M175.171 48.9742C171.046 53.1853 167.834 58.0746 164.582 62.9517C162.834 65.571 160.612 67.8653 158.605 70.31C158.41 70.1963 158.215 70.0826 158.017 69.9689C158.463 68.9252 158.909 67.8816 159.355 66.842" stroke="#5C5C5C" stroke-linecap="round" stroke-linejoin="round"/>
<path d="M309.806 300.544C307.304 300.747 304.79 300.837 302.308 301.178C298.103 301.762 293.926 302.51 289.733 303.176C289.404 303.228 289.06 303.184 288.719 303.184" stroke="#5C5C5C" stroke-linecap="round" stroke-linejoin="round"/>
<path d="M155.502 88.7706C154.399 95.2071 154.338 101.83 152.088 108.072C151.921 108.531 152.193 109.144 152.258 109.684" stroke="#5C5C5C" stroke-linecap="round" stroke-linejoin="round"/>
<path d="M189.567 285.722C190.463 289.377 192.434 292.297 195.662 294.234C199.632 296.617 202.791 299.797 205.382 303.59" stroke="#5C5C5C" stroke-linecap="round" stroke-linejoin="round"/>
<path d="M167.465 294.453C161.829 298.258 155.782 298.794 149.423 296.678C148.795 296.471 148.203 296.146 147.594 295.874" stroke="#5C5C5C" stroke-linecap="round" stroke-linejoin="round"/>
<path d="M128.94 41.2586C126.576 42.4769 124.147 43.5896 121.86 44.9418C118.818 46.7408 117.204 49.7458 115.882 52.5965C114.43 53.2016 113.128 53.6564 111.928 54.298C111.523 54.5133 111.364 55.2036 111.097 55.6787" stroke="#5C5C5C" stroke-linecap="round" stroke-linejoin="round"/>
<path d="M204.166 331.61C200.18 337.77 196.189 343.926 192.215 350.095C192.122 350.237 192.203 350.493 192.203 350.696" stroke="#5C5C5C" stroke-linecap="round" stroke-linejoin="round"/>
<path d="M188.35 180.749C181.436 184.781 174.209 187.855 166.046 188.067C165.843 188.071 165.641 188.193 165.438 188.262" stroke="#5C5C5C" stroke-linecap="round" stroke-linejoin="round"/>
<path d="M116.571 115.775C117.18 116.315 117.719 116.981 118.408 117.379C121.296 119.048 123.206 121.404 123.826 124.746C122.63 129.432 119.998 133.302 116.58 136.693C116.069 137.196 115.627 137.769 115.156 138.313" stroke="#5C5C5C" stroke-linecap="round" stroke-linejoin="round"/>
<path d="M160.369 166.739C159.233 171.62 162.303 174.962 167.263 174.256C167.396 174.235 167.551 174.296 167.664 174.248C171.099 172.806 173.642 174.394 175.982 176.692" stroke="#5C5C5C" stroke-linecap="round" stroke-linejoin="round"/>
<path d="M145.567 35.5734C144.419 33.474 143.328 31.342 142.104 29.2872C140.826 27.1512 137.756 25.8111 134.634 27.8822C132.586 29.2385 130.7 30.8385 128.733 32.3166C128.571 32.4385 128.332 32.4588 128.129 32.5278" stroke="#5C5C5C" stroke-linecap="round" stroke-linejoin="round"/>
<path d="M228.092 46.9438C231 47.756 233.956 48.4179 236.795 49.4209C239.698 50.4483 242.488 51.8168 245.327 53.0351" stroke="#5C5C5C" stroke-linecap="round" stroke-linejoin="round"/>
<path d="M254.654 109.887C254.926 110.902 255.096 111.958 255.482 112.925C257.169 117.172 258.097 121.57 258.292 126.131C258.304 126.399 258.166 126.671 258.101 126.943" stroke="#5C5C5C" stroke-linecap="round" stroke-linejoin="round"/>
<path d="M212.074 111.917C210.074 112.579 210.638 114.232 211.141 115.333C211.741 116.644 212.856 117.769 213.919 118.801C216.149 120.965 218.655 122.87 220.748 125.156C223.027 127.645 222.143 129.14 218.96 129.749C216.835 130.155 214.641 130.195 212.479 130.398" stroke="#5C5C5C" stroke-linecap="round" stroke-linejoin="round"/>
<path d="M199.502 107.857C199.166 107.991 198.687 108.031 198.513 108.279C197.986 109.051 197.572 109.903 197.061 110.825C197.118 111.174 197.187 111.649 197.272 112.116C198.034 116.263 197.548 117.327 194.028 119.223C193.549 119.483 193.079 119.759 192.608 120.035C189.348 121.94 188.938 122.878 190.208 126.317C190.609 127.41 191.392 128.36 192 129.375" stroke="#5C5C5C" stroke-linecap="round" stroke-linejoin="round"/>
<path d="M258.507 129.176C260.466 132.222 262.489 135.231 264.371 138.321C266.403 141.659 268.321 145.07 270.247 148.473C270.466 148.859 270.401 149.407 270.47 149.882" stroke="#5C5C5C" stroke-linecap="round" stroke-linejoin="round"/>
<path d="M218.157 46.1317C214.779 46.6068 211.401 47.1022 208.018 47.5408C206.879 47.687 205.711 47.6057 204.575 47.7844C203.675 47.9266 202.815 48.3001 201.935 48.5722" stroke="#5C5C5C" stroke-linecap="round" stroke-linejoin="round"/>
<path d="M258.101 152.323C260.198 152.526 262.323 152.567 264.379 152.969C267.737 153.627 270.324 155.624 272.506 158.203C272.997 158.784 273.58 159.291 274.12 159.832" stroke="#5C5C5C" stroke-linecap="round" stroke-linejoin="round"/>
<path d="M274.728 170.597C273.443 171.681 272.084 172.684 270.896 173.866C269.282 175.466 267.623 175.397 265.587 174.719C263.377 173.984 261.013 173.712 258.714 173.236" stroke="#5C5C5C" stroke-linecap="round" stroke-linejoin="round"/>
<path d="M184.903 58.3142C184.429 60.6086 184.116 62.8827 182.953 65.0552C181.533 67.7151 179.416 69.4044 176.991 70.8947C176.192 71.3861 175.349 71.8003 174.672 72.1698C172.109 71.8978 170.158 73.1282 168.524 74.6023C166.581 76.3566 165 78.5129 163.195 80.4296C162.048 81.6479 160.774 82.7443 159.558 83.8935" stroke="#5C5C5C" stroke-linecap="round" stroke-linejoin="round"/>
<path d="M132.59 58.7203C131.102 54.9315 129.642 51.1306 128.117 47.354C127.468 45.7459 126.827 43.9997 124.479 44.5073" stroke="#5C5C5C" stroke-linecap="round" stroke-linejoin="round"/>
<path d="M182.47 146.841C182.742 147.45 182.957 148.092 183.289 148.664C184.984 151.584 183.658 154.049 182.04 156.368C180.398 158.723 177.206 157.35 175.771 155.58C174.355 153.83 172.879 152.128 171.196 150.13C169.947 151.194 168.808 152.165 167.668 153.139" stroke="#5C5C5C" stroke-linecap="round" stroke-linejoin="round"/>
<path d="M198.286 40.0404C194.259 38.4688 190.966 41.2952 191.485 46.1235C191.777 48.8199 193.014 51.4108 193.825 54.0503" stroke="#5C5C5C" stroke-linecap="round" stroke-linejoin="round"/>
<path d="M167.465 49.7864C169.156 47.2159 170.685 44.5154 172.591 42.1155C173.889 40.4789 175.702 39.2526 177.287 37.8434C177.539 37.9003 177.79 37.9612 178.038 38.0181C179.988 42.416 181.951 46.8058 183.881 51.2118C184.222 51.9915 184.433 52.8321 184.705 53.6442" stroke="#5C5C5C" stroke-linecap="round" stroke-linejoin="round"/>
<path d="M274.12 168.769C274.027 164.022 271.277 161.212 267.214 159.458C266.009 158.938 264.659 158.751 263.373 158.414" stroke="#5C5C5C" stroke-linecap="round" stroke-linejoin="round"/>
<path d="M158.341 85.725C154.687 88.2183 152.514 91.9462 149.942 95.4061C147.043 99.3126 147.246 103.698 146.775 108.056C146.471 110.902 146.106 113.741 145.77 116.583" stroke="#5C5C5C" stroke-linecap="round" stroke-linejoin="round"/>
<path d="M128.129 151.714C129.074 153.407 130.128 155.048 130.931 156.806C131.487 158.028 132.156 159.356 130.789 160.672C129.634 161.781 128.405 161.984 127.144 161.216C126.397 160.766 125.777 159.978 125.319 159.214C124.021 157.046 122.545 156.096 120.302 156.437C121.803 158.057 122.76 160.018 125.294 159.84" stroke="#5C5C5C" stroke-linecap="round" stroke-linejoin="round"/>
<path d="M205.585 104.608C199.997 104.226 195.204 105.826 191.607 110.305C190.633 111.515 189.822 112.856 188.869 114.236C188.184 112.579 188.472 111.02 189.396 109.708C190.804 107.715 192.669 106.204 195.041 105.42" stroke="#5C5C5C" stroke-linecap="round" stroke-linejoin="round"/>
<path d="M249.18 208.769C247.091 211.689 246.933 215.14 246.568 218.519C246.418 219.924 246.544 221.358 246.544 222.779" stroke="#5C5C5C" stroke-linecap="round" stroke-linejoin="round"/>
<path d="M128.129 55.0655C128.79 60.8928 131.183 65.6644 136.451 68.6531C136.998 68.9658 137.659 69.0755 138.267 69.2785" stroke="#5C5C5C" stroke-linecap="round" stroke-linejoin="round"/>
<path d="M146.986 101.968C145.701 105.148 144.387 108.32 143.15 111.515C142.611 112.908 142.233 114.366 141.722 115.974C143.117 116.173 144.561 116.38 146.001 116.587C146.041 116.758 146.082 116.933 146.126 117.103C144.995 117.607 143.88 118.155 142.728 118.602C141.118 119.223 140.133 120.222 140.299 122.066" stroke="#5C5C5C" stroke-linecap="round" stroke-linejoin="round"/>
<path d="M119.816 40.6495C116.632 43.3337 113.688 46.2372 112.147 50.2088C111.632 51.5367 111.567 53.0351 111.3 54.4564" stroke="#5C5C5C" stroke-linecap="round" stroke-linejoin="round"/>
<path d="M216.332 309.275C214.568 314.871 210.906 319.106 206.599 322.879" stroke="#5C5C5C" stroke-linecap="round" stroke-linejoin="round"/>
<path d="M159.152 147.247C161.172 149.886 163.958 151.458 166.845 152.956C171.306 155.275 171.318 159.442 168.066 162.26C166.484 163.628 165.085 163.389 163.613 161.663" stroke="#5C5C5C" stroke-linecap="round" stroke-linejoin="round"/>
<path d="M159.76 94.4558C159.018 97.6355 158.268 100.815 157.53 103.999C157.177 105.526 156.5 106.829 155.097 107.654" stroke="#5C5C5C" stroke-linecap="round" stroke-linejoin="round"/>
<path d="M215.115 110.293C217.277 110.902 219.471 111.426 221.596 112.141C225.249 113.363 228.299 115.434 230.331 118.817C230.521 119.134 230.862 119.365 231.13 119.637" stroke="#5C5C5C" stroke-linecap="round" stroke-linejoin="round"/>
<path d="M222.415 110.699C226.474 110.691 229.017 113.128 231.113 116.194C232.034 117.538 232.756 119.024 233.567 120.445" stroke="#5C5C5C" stroke-linecap="round" stroke-linejoin="round"/>
<path d="M123.06 60.3447C121.945 58.5254 121.077 56.5193 119.009 55.4635C115.594 53.7214 112.484 54.5133 109.458 57.896C108.891 58.5335 108.12 58.9924 107.447 59.5325" stroke="#5C5C5C" stroke-linecap="round" stroke-linejoin="round"/>
<path d="M212.885 106.435C207.832 104.726 203.176 105.518 198.894 108.669" stroke="#5C5C5C" stroke-linecap="round" stroke-linejoin="round"/>
<path d="M211.263 107.451C206.335 106.902 202.219 109.144 198.083 111.308" stroke="#5C5C5C" stroke-linecap="round" stroke-linejoin="round"/>
<path d="M114.949 63.7964C112.285 64.6492 112.013 67.2562 111.162 69.307C110.371 71.2074 110.119 73.3313 109.568 75.6135C110.107 75.8409 110.634 76.0642 111.06 76.247C112.585 72.6003 113.996 69.3557 118.587 69.4288C117.975 67.0654 117.52 64.8644 115.152 63.8004" stroke="#5C5C5C" stroke-linecap="round" stroke-linejoin="round"/>
<path d="M120.627 60.5477C122.253 62.2736 121.961 64.5923 122.395 66.6512C122.967 69.3638 123.871 71.78 125.882 73.7658C126.868 74.7404 127.659 75.914 128.539 76.9942" stroke="#5C5C5C" stroke-linecap="round" stroke-linejoin="round"/>
<path d="M280.811 161.663C279.189 160.173 277.559 158.694 275.949 157.192C275.182 156.473 274.428 155.734 273.718 154.958C271.018 151.982 267.7 150.098 263.775 149.285C262.631 149.05 261.479 148.875 260.328 148.672" stroke="#5C5C5C" stroke-linecap="round" stroke-linejoin="round"/>
<path d="M159.558 166.13C157.38 168.635 156.54 171.722 155.944 174.869C155.746 175.908 155.669 177.102 156.719 177.906" stroke="#5C5C5C" stroke-linecap="round" stroke-linejoin="round"/>
<path d="M110.286 144.404C108.578 145.403 108.003 147.072 107.573 149.005C105.821 149.862 104.012 150.861 103.996 153.777C105.509 154.963 107.232 156.315 109.102 157.781C110.01 157.525 111.433 158.414 112.472 156.875C111.271 155.624 110.103 154.414 108.935 153.2L109.641 152.648C109.832 153.35 111.178 153.184 110.48 154.556" stroke="#5C5C5C" stroke-linecap="round" stroke-linejoin="round"/>
<path d="M162.194 116.791C166.383 119.223 169.935 122.252 171.723 126.943" stroke="#5C5C5C" stroke-linecap="round" stroke-linejoin="round"/>
<path d="M160.571 53.8473C158.41 57.23 156.111 60.5396 154.14 64.0319C153.138 65.8106 152.737 67.9263 152.047 69.8836C151.97 70.1069 151.784 70.2937 151.65 70.4968" stroke="#5C5C5C" stroke-linecap="round" stroke-linejoin="round"/>
<path d="M187.336 41.2586C186.237 38.7815 184.923 36.7389 181.89 36.0607C180.515 35.7562 179.53 33.9897 178.192 33.1735C175.978 31.8212 173.625 30.6842 171.306 29.5065C171.062 29.3847 170.645 29.6162 170.304 29.6852" stroke="#5C5C5C" stroke-linecap="round" stroke-linejoin="round"/>
<path d="M128.737 41.8678C130.437 45.9083 131.888 50.0991 135.429 53.0351" stroke="#5C5C5C" stroke-linecap="round" stroke-linejoin="round"/>
<path d="M162.396 174.049C162.396 174.386 162.291 174.974 162.413 175.027C165.551 176.375 168.84 176.197 172.125 175.835C172.429 175.803 172.668 175.198 172.94 174.861" stroke="#5C5C5C" stroke-linecap="round" stroke-linejoin="round"/>
<path d="M178.212 38.213C179.498 38.4851 180.828 38.6272 182.048 39.0658C183.046 39.4231 183.399 40.2759 183.804 41.4211C185.09 45.0474 185.422 49.0758 187.941 52.227" stroke="#5C5C5C" stroke-linecap="round" stroke-linejoin="round"/>
<path d="M103.392 125.115C103.047 127.43 103.992 129.261 105.395 131.024C106.81 132.802 108.485 133.464 110.695 133.062C112.642 132.709 114.661 131.678 116.571 133.241" stroke="#5C5C5C" stroke-linecap="round" stroke-linejoin="round"/>
<path d="M167.871 130.597C165.774 129.655 164.031 128.112 161.606 127.641C159.971 127.324 158.69 127.43 157.327 128.161" stroke="#5C5C5C" stroke-linecap="round" stroke-linejoin="round"/>
<path d="M184.7 54.4564C182.3 54.3427 180.24 55.3985 178.455 56.7427C176.521 58.2005 174.891 60.0644 173.147 61.77C171.711 63.175 170.085 64.4502 168.933 66.0623C166.744 69.1283 164.829 72.3891 162.802 75.5728" stroke="#5C5C5C" stroke-linecap="round" stroke-linejoin="round"/>
<path d="M109.475 113.339C109.272 112.933 109.158 112.437 108.85 112.137C106.985 110.281 105.119 108.421 103.161 106.667C102.581 106.147 101.701 105.96 100.954 105.623" stroke="#5C5C5C" stroke-linecap="round" stroke-linejoin="round"/>
<path d="M274.931 156.993C276.079 159.767 277.38 162.495 278.309 165.342C278.71 166.568 278.674 167.88 280 168.566" stroke="#5C5C5C" stroke-linecap="round" stroke-linejoin="round"/>
<path d="M323.594 288.159C320.281 286.059 316.972 283.964 313.659 281.864" stroke="#5C5C5C" stroke-linecap="round" stroke-linejoin="round"/>
<path d="M163.816 56.0807C163.138 56.4178 162.315 56.6127 161.812 57.1203C159.258 59.7071 156.788 62.3751 154.286 65.0146" stroke="#5C5C5C" stroke-linecap="round" stroke-linejoin="round"/>
<path d="M167.871 38.8221C167.713 42.0302 166.225 44.7753 164.817 47.5489C164.558 48.0606 164.152 48.5032 163.816 48.9742" stroke="#5C5C5C" stroke-linecap="round" stroke-linejoin="round"/>
<path d="M153.475 126.13C153.272 126.537 152.87 126.955 152.899 127.345C153.114 130.528 153.41 133.708 153.677 136.892" stroke="#5C5C5C" stroke-linecap="round" stroke-linejoin="round"/>
<path d="M265.401 146.435C268.24 148.465 270.993 150.63 273.941 152.489C276.914 154.362 279.051 156.989 281.217 159.633" stroke="#5C5C5C" stroke-linecap="round" stroke-linejoin="round"/>
<path d="M168.276 116.791C167.599 116.315 166.833 115.934 166.265 115.353C164.728 113.777 163.321 112.076 161.76 110.525C161.249 110.017 160.434 109.822 159.756 109.481" stroke="#5C5C5C" stroke-linecap="round" stroke-linejoin="round"/>
<path d="M173.346 124.1C172.263 126.2 171.233 128.323 170.077 130.382C169.615 131.207 168.885 131.885 168.179 132.246C167.129 132.51 166.079 132.774 165.032 133.034" stroke="#5C5C5C" stroke-linecap="round" stroke-linejoin="round"/>
<path d="M164.829 29.4821C166.143 30.8791 167.834 32.0283 168.062 34.1521C168.199 35.4313 168.208 36.7227 168.277 38.0099" stroke="#5C5C5C" stroke-linecap="round" stroke-linejoin="round"/>
<path d="M147.189 124.709C149.083 123.41 151.192 122.845 153.227 122.776C153.864 126.561 154.424 130.216 155.125 133.842C155.377 135.15 155.295 136.149 154.087 136.9C152.595 137.822 152.769 139.694 151.853 140.953" stroke="#5C5C5C" stroke-linecap="round" stroke-linejoin="round"/>
<path d="M165.032 109.481C165.507 110.362 165.941 111.264 166.46 112.116C167.417 113.692 168.422 115.239 169.408 116.799C169.302 116.933 169.193 117.063 169.088 117.197H170.304" stroke="#5C5C5C" stroke-linecap="round" stroke-linejoin="round"/>
<path d="M202.341 124.506C198.841 124.311 196.051 125.806 193.622 128.161" stroke="#5C5C5C" stroke-linecap="round" stroke-linejoin="round"/>
<path d="M132.793 31.9187C135.603 33.5674 138.612 34.9684 140.287 38.014C140.344 38.1196 140.295 38.282 140.295 38.416" stroke="#5C5C5C" stroke-linecap="round" stroke-linejoin="round"/>
<path d="M154.488 121.257C151.719 121.936 148.949 122.618 146.175 123.284C144.691 123.641 143.203 123.962 141.714 124.303" stroke="#5C5C5C" stroke-linecap="round" stroke-linejoin="round"/>
<path d="M205.18 54.6595C202.041 54.3711 199.068 54.6148 196.927 57.4899C196.777 57.4452 196.631 57.4005 196.481 57.3559C196.408 56.8645 196.104 56.2391 196.295 55.898C197.365 54.026 198.553 52.223 199.705 50.3956" stroke="#5C5C5C" stroke-linecap="round" stroke-linejoin="round"/>
<path d="M120.424 49.1773C121.235 49.4494 122.16 49.555 122.833 50.026C124.179 50.9681 125.019 52.1417 124.954 54.0544C124.869 56.5478 125.339 59.0574 125.469 61.567C125.53 62.7121 125.355 63.8654 125.286 65.0187" stroke="#5C5C5C" stroke-linecap="round" stroke-linejoin="round"/>
<path d="M169.493 29.4821C172.656 31.8374 175.211 34.7531 177.401 38.0099" stroke="#5C5C5C" stroke-linecap="round" stroke-linejoin="round"/>
<path d="M184.295 55.2686C181.209 57.8757 178.626 60.9132 176.594 64.4096C175.321 66.5984 173.297 67.8166 171.115 68.8806C169.676 69.5831 168.272 70.3628 166.853 71.1059" stroke="#5C5C5C" stroke-linecap="round" stroke-linejoin="round"/>
<path d="M205.18 45.7256C202.394 44.6413 198.683 46.5986 197.88 49.5834" stroke="#5C5C5C" stroke-linecap="round" stroke-linejoin="round"/>
<path d="M145.161 121.867C144.756 123.625 144.176 125.367 143.985 127.15C143.693 129.842 143.673 132.559 143.539 135.267" stroke="#5C5C5C" stroke-linecap="round" stroke-linejoin="round"/>
<path d="M219.779 109.684C218.428 109.347 217.09 108.892 215.719 108.693C213.051 108.303 210.512 109.12 208.031 109.924C206.729 110.346 205.549 111.162 203.833 112.047C201.051 111.889 197.742 111.674 194.433 111.524C193.513 111.483 192.255 111.053 192.203 112.726" stroke="#5C5C5C" stroke-linecap="round" stroke-linejoin="round"/>
<path d="M256.885 154.15C257.29 154.219 257.813 154.15 258.085 154.374C262.1 157.728 266.159 161.029 270.04 164.534C272.822 167.048 275.04 170.057 276.354 173.642" stroke="#5C5C5C" stroke-linecap="round" stroke-linejoin="round"/>
<path d="M177.604 177.5C180.171 178.991 182.742 180.477 185.309 181.967" stroke="#5C5C5C" stroke-linecap="round" stroke-linejoin="round"/>
<path d="M213.29 133.44C209.085 136.238 204.417 136.961 199.506 136.461C198.476 136.356 197.475 135.946 196.461 135.674" stroke="#5C5C5C" stroke-linecap="round" stroke-linejoin="round"/>
<path d="M256.682 139.937C255.745 142.419 256.167 144.936 256.479 147.45" stroke="#5C5C5C" stroke-linecap="round" stroke-linejoin="round"/>
<path d="M213.696 112.324C214.17 111.848 214.645 111.377 215.115 110.902C215.018 110.695 214.916 110.492 214.819 110.285C212.268 110.301 209.892 111.089 207.613 112.32" stroke="#5C5C5C" stroke-linecap="round" stroke-linejoin="round"/>
<path d="M179.226 61.3598C181.793 61.7659 184.376 62.103 186.923 62.6106C187.977 62.8218 188.959 63.3903 190.508 64.0075C190.272 63.1101 190.297 62.3791 189.944 61.9974C188.156 60.0441 186.314 58.1112 183.484 57.7051" stroke="#5C5C5C" stroke-linecap="round" stroke-linejoin="round"/>
<path d="M151.853 111.308C152.124 113.611 152.388 115.909 152.668 118.212C152.741 118.821 152.85 119.426 152.952 120.08C150.502 120.632 148.118 121.164 145.611 121.729C145.482 121.542 145.234 121.188 144.841 120.628C144.711 121.01 144.63 121.237 144.553 121.465" stroke="#5C5C5C" stroke-linecap="round" stroke-linejoin="round"/>
<path d="M99.3364 107.247C101.701 109.006 104.069 110.768 106.433 112.527" stroke="#5C5C5C" stroke-linecap="round" stroke-linejoin="round"/>
<path d="M171.521 69.0755C170.304 70.6308 169.225 72.3242 167.839 73.713C165.945 75.6053 163.828 77.2825 161.776 79.0083C161.472 79.2642 160.977 79.2966 160.571 79.4306" stroke="#5C5C5C" stroke-linecap="round" stroke-linejoin="round"/>
<path d="M278.986 257.499C281.014 259.867 283.041 262.238 285.069 264.606" stroke="#5C5C5C" stroke-linecap="round" stroke-linejoin="round"/>
<path d="M154.691 108.263C157.542 107.8 159.225 109.201 160.855 111.45C162.433 113.623 164.692 115.3 166.654 117.197" stroke="#5C5C5C" stroke-linecap="round" stroke-linejoin="round"/>
<path d="M109.475 122.476C111.839 123.422 114.207 124.372 116.571 125.318" stroke="#5C5C5C" stroke-linecap="round" stroke-linejoin="round"/>
<path d="M164.018 214.048C162.53 214.32 161.042 214.576 159.558 214.864C158.674 215.039 157.798 215.266 156.922 215.469" stroke="#5C5C5C" stroke-linecap="round" stroke-linejoin="round"/>
<path d="M124.277 56.0808C123.542 53.226 121.673 51.6544 118.802 51.2077" stroke="#5C5C5C" stroke-linecap="round" stroke-linejoin="round"/>
<path d="M158.949 185.622C159.622 188.367 161.666 189.529 165.032 189.074" stroke="#5C5C5C" stroke-linecap="round" stroke-linejoin="round"/>
<path d="M185.512 55.2686C187.803 56.763 190.427 57.9284 191.189 60.9538" stroke="#5C5C5C" stroke-linecap="round" stroke-linejoin="round"/>
<path d="M280 169.785C281.452 171.864 280.612 173.866 279.805 175.88C279.68 176.197 279.663 176.554 279.594 176.891" stroke="#5C5C5C" stroke-linecap="round" stroke-linejoin="round"/>
<path d="M125.493 34.1521C123.323 35.2283 121.154 36.3003 118.684 37.5226C120.201 39.8048 121.43 41.6485 122.654 43.4921" stroke="#5C5C5C" stroke-linecap="round" stroke-linejoin="round"/>
<path d="M127.318 33.34C125.765 33.2709 124.191 33.0354 122.662 33.2141C122.001 33.2912 121.438 34.2171 120.829 34.7613" stroke="#5C5C5C" stroke-linecap="round" stroke-linejoin="round"/>
<path d="M159.355 79.6337C159.541 79.788 159.728 79.9464 160.166 80.3119V78.3464C159.728 78.7159 159.456 78.8337 159.367 79.0327C158.402 81.258 157.449 83.4874 156.532 85.7331C156.415 86.0214 156.516 86.4031 156.516 86.7402" stroke="#5C5C5C" stroke-linecap="round" stroke-linejoin="round"/>
<path d="M115.558 111.918C114.742 109.761 114.694 107.252 112.715 105.627C112.399 105.367 112.038 105.16 111.478 105.112C112.893 107.601 114.146 110.025 113.729 112.933" stroke="#5C5C5C" stroke-linecap="round" stroke-linejoin="round"/>
<path d="M164.829 68.6694C163.885 70.6308 162.919 72.5881 162.007 74.5658C161.877 74.846 161.991 75.2358 161.991 75.5729" stroke="#5C5C5C" stroke-linecap="round" stroke-linejoin="round"/>
<path d="M159.558 134.049C160.048 136.579 159.756 138.865 157.615 140.616C157.254 140.417 156.991 140.27 156.759 140.144C157.347 138.622 157.94 137.083 158.471 135.694C157.558 134.171 156.557 134.411 155.498 135.064" stroke="#5C5C5C" stroke-linecap="round" stroke-linejoin="round"/>
<path d="M152.258 201.053C153.88 202.747 155.486 204.452 157.137 206.117C157.538 206.523 158.073 206.803 158.544 207.145" stroke="#5C5C5C" stroke-linecap="round" stroke-linejoin="round"/>
<path d="M182.47 232.525C183.889 233.609 185.512 234.511 186.671 235.822C187.884 237.191 189.782 238.214 189.77 240.444C189.77 241.053 189.77 241.662 189.77 242.271" stroke="#5C5C5C" stroke-linecap="round" stroke-linejoin="round"/>
<path d="M252.829 56.8929C250.599 55.7437 248.369 54.5904 246.138 53.4412" stroke="#5C5C5C" stroke-linecap="round" stroke-linejoin="round"/>
<path d="M126.912 50.5986C126.657 49.4453 126.401 48.292 126.158 47.2037C125.363 46.5946 124.637 46.0342 123.92 45.486C120.501 48.0971 118.599 49.9367 118.165 53.0392C118.668 53.3478 119.244 53.697 119.816 54.0503" stroke="#5C5C5C" stroke-linecap="round" stroke-linejoin="round"/>
<path d="M119.816 117.806C119.268 116.157 118.721 114.504 118.173 112.856C118.425 112.766 118.672 112.681 118.924 112.592C120.168 114.699 121.884 116.604 121.438 119.43" stroke="#5C5C5C" stroke-linecap="round" stroke-linejoin="round"/>
<path d="M169.088 152.323C171.249 153.472 173.415 154.626 175.576 155.775" stroke="#5C5C5C" stroke-linecap="round" stroke-linejoin="round"/>
<path d="M120.221 54.4564C122.362 55.8331 124.341 57.299 123.465 60.3447" stroke="#5C5C5C" stroke-linecap="round" stroke-linejoin="round"/>
<path d="M277.161 167.145V173.642" stroke="#5C5C5C" stroke-linecap="round" stroke-linejoin="round"/>
<path d="M154.894 77.6033C152.733 77.6723 150.567 77.7373 148.406 77.8063" stroke="#5C5C5C" stroke-linecap="round" stroke-linejoin="round"/>
<path d="M151.65 128.973C149.164 129.399 147.388 131.332 146.986 134.049" stroke="#5C5C5C" stroke-linecap="round" stroke-linejoin="round"/>
<path d="M104.406 128.77C104.945 128.904 105.622 128.88 106.003 129.205C107.524 130.488 108.98 130.874 111.117 130.545C113.445 130.187 116.15 129.237 118.392 131.207" stroke="#5C5C5C" stroke-linecap="round" stroke-linejoin="round"/>
<path d="M165.641 110.09C166.383 110.362 167.445 110.411 167.814 110.943C169.286 113.046 170.633 115.191 170.564 118.013C170.507 120.315 171.314 122.459 173.204 123.966C173.35 123.905 173.496 123.844 173.642 123.779C173.406 123.142 173.171 122.504 172.936 121.867" stroke="#5C5C5C" stroke-linecap="round" stroke-linejoin="round"/>
<path d="M156.922 135.877C156.208 138.711 154.326 140.425 151.65 141.355C150.595 141.72 150.591 141.704 148.203 140.547" stroke="#5C5C5C" stroke-linecap="round" stroke-linejoin="round"/>
<path d="M128.129 68.0603C129.885 69.5953 131.584 71.2399 134.212 70.9029" stroke="#5C5C5C" stroke-linecap="round" stroke-linejoin="round"/>
<path d="M186.931 107.451V113.542" stroke="#5C5C5C" stroke-linecap="round" stroke-linejoin="round"/>
<path d="M187.945 53.0351C189.23 55.0655 190.512 57.0959 191.797 59.1264" stroke="#5C5C5C" stroke-linecap="round" stroke-linejoin="round"/>
<path d="M278.175 306.432C276.147 307.111 274.12 307.785 272.092 308.463" stroke="#5C5C5C" stroke-linecap="round" stroke-linejoin="round"/>
<path d="M144.959 135.267C147.201 133.274 149.545 134.723 151.853 135.077C152.27 135.142 152.664 135.336 153.069 135.47" stroke="#5C5C5C" stroke-linecap="round" stroke-linejoin="round"/>
<path d="M281.622 162.881C281.35 163.624 281.03 164.355 280.819 165.119C279.854 168.631 278.917 172.156 277.972 175.673" stroke="#5C5C5C" stroke-linecap="round" stroke-linejoin="round"/>
<path d="M167.06 50.5986C165.166 54.3224 163.272 58.0421 161.395 61.7741C161.354 61.8553 161.516 62.038 161.585 62.172" stroke="#5C5C5C" stroke-linecap="round" stroke-linejoin="round"/>
<path d="M129.751 31.3095C129.666 30.5623 129.585 29.8151 129.5 29.0679C129.309 29.0517 129.119 29.0314 128.928 29.0152C127.164 30.9968 127.752 33.6689 127.115 35.9836" stroke="#5C5C5C" stroke-linecap="round" stroke-linejoin="round"/>
<path d="M136.037 115.369C135.968 116.721 135.83 118.078 135.891 119.426C135.903 119.714 136.645 119.97 137.051 120.242" stroke="#5C5C5C" stroke-linecap="round" stroke-linejoin="round"/>
<path d="M217.143 309.681C216.535 311.578 215.926 313.47 215.318 315.366" stroke="#5C5C5C" stroke-linecap="round" stroke-linejoin="round"/>
<path d="M117.382 74.3546C118.125 75.0977 118.753 76.1535 119.649 76.4906C120.4 76.7708 122.095 77.2053 121.843 75.1668" stroke="#5C5C5C" stroke-linecap="round" stroke-linejoin="round"/>
<path d="M117.585 72.3242C118.4 73.7617 119.272 75.118 121.105 74.6185C122.229 74.1231 123.356 73.6318 124.479 73.1363" stroke="#5C5C5C" stroke-linecap="round" stroke-linejoin="round"/>
<path d="M251.207 147.247C253.101 148.668 255.084 149.988 256.84 151.56C257.574 152.213 257.83 153.407 258.304 154.353" stroke="#5C5C5C" stroke-linecap="round" stroke-linejoin="round"/>
<path d="M220.59 107.451C218.157 107.178 215.724 106.91 213.29 106.638" stroke="#5C5C5C" stroke-linecap="round" stroke-linejoin="round"/>
<path d="M138.065 114.76C137.728 116.112 137.221 117.457 137.12 118.825C137.067 119.544 137.716 120.311 138.15 121.298C139.314 120.08 140.129 119.304 138.843 118.151C138.507 118.939 138.182 119.694 137.862 120.445" stroke="#5C5C5C" stroke-linecap="round" stroke-linejoin="round"/>
<path d="M145.972 139.328C146.577 141.627 148.47 142.345 150.433 142.983" stroke="#5C5C5C" stroke-linecap="round" stroke-linejoin="round"/>
<path d="M154.691 109.684C155.855 111.085 157.019 112.482 158.199 113.899C158.698 113.57 159.026 113.355 159.245 113.209C161.63 114.131 162.952 116.677 165.641 116.994" stroke="#5C5C5C" stroke-linecap="round" stroke-linejoin="round"/>
<path d="M121.843 111.105C122.18 113.27 122.521 115.438 122.857 117.603" stroke="#5C5C5C" stroke-linecap="round" stroke-linejoin="round"/>
<path d="M98.1198 109.684C99.5676 111.158 101.125 112.076 103.396 112.015C104.937 111.974 106.486 112.929 108.063 113.31C108.887 113.509 110.115 114.37 110.286 112.527" stroke="#5C5C5C" stroke-linecap="round" stroke-linejoin="round"/>
<path d="M156.516 123.694C153.803 125.091 150.932 125.148 148 124.709" stroke="#5C5C5C" stroke-linecap="round" stroke-linejoin="round"/>
<path d="M169.088 130.8C168.098 129.797 167.847 130.833 167.713 131.418C167.579 131.982 167.802 132.628 167.879 133.351C166.784 134.796 166.07 136.754 163.82 137.091" stroke="#5C5C5C" stroke-linecap="round" stroke-linejoin="round"/>
<path d="M201.53 136.892C200.18 137.675 198.375 137.749 196.664 137.095" stroke="#5C5C5C" stroke-linecap="round" stroke-linejoin="round"/>
<path d="M152.866 29.2791C151.11 29.3481 149.35 29.4131 147.594 29.4822" stroke="#5C5C5C" stroke-linecap="round" stroke-linejoin="round"/>
<path d="M161.585 70.9029C161.451 71.9871 161.289 73.0673 161.188 74.1515C161.131 74.7566 161.18 75.3698 161.18 75.9789" stroke="#5C5C5C" stroke-linecap="round" stroke-linejoin="round"/>
<path d="M152.258 118.821C150.636 119.093 149.014 119.353 147.392 119.637C146.532 119.787 145.676 119.97 144.78 119.881C143.754 120.466 142.724 121.054 141.698 121.639C141.812 121.773 141.925 121.911 142.039 122.045C142.27 121.85 142.497 121.655 142.728 121.461" stroke="#5C5C5C" stroke-linecap="round" stroke-linejoin="round"/>
<path d="M163.207 28.873C162.194 28.9421 161.18 29.0233 160.166 29.072C158.613 29.1492 157.055 29.206 155.502 29.2791C153.264 29.3888 151.921 27.4964 150.028 26.8426C149.764 26.7533 149.488 26.7045 149.217 26.6355" stroke="#5C5C5C" stroke-linecap="round" stroke-linejoin="round"/>
<path d="M253.438 166.333C252.83 168.026 252.221 169.716 251.613 171.409" stroke="#5C5C5C" stroke-linecap="round" stroke-linejoin="round"/>
<path d="M98.5253 108.466C100.079 109.55 101.636 110.63 103.189 111.714" stroke="#5C5C5C" stroke-linecap="round" stroke-linejoin="round"/>
<path d="M155.502 29.4821C156.905 30.8222 158.349 32.142 158.138 34.3552" stroke="#5C5C5C" stroke-linecap="round" stroke-linejoin="round"/>
<path d="M221.198 110.496C222.682 111.032 221.932 109.339 223.124 108.977C221.064 108.774 219.507 107.759 217.954 109.075" stroke="#5C5C5C" stroke-linecap="round" stroke-linejoin="round"/>
<path d="M178.009 61.5629C176.387 61.6969 174.765 61.835 173.143 61.969" stroke="#5C5C5C" stroke-linecap="round" stroke-linejoin="round"/>
<path d="M155.3 108.872C156.585 110.293 157.867 111.714 159.152 113.136" stroke="#5C5C5C" stroke-linecap="round" stroke-linejoin="round"/>
<path d="M163.613 110.09C164.761 111.645 165.912 113.205 167.06 114.76" stroke="#5C5C5C" stroke-linecap="round" stroke-linejoin="round"/>
<path d="M124.682 51.6138C125.12 51.3214 125.558 51.0291 126.028 50.7164C125.582 49.5184 125.676 48.1499 124.074 47.959" stroke="#5C5C5C" stroke-linecap="round" stroke-linejoin="round"/>
<path d="M118.599 69.6846C119.666 71.114 120.27 72.978 122.249 73.5424" stroke="#5C5C5C" stroke-linecap="round" stroke-linejoin="round"/>
<path d="M275.742 162.272C275.255 164.871 276.261 166.735 278.378 167.145" stroke="#5C5C5C" stroke-linecap="round" stroke-linejoin="round"/>
<path d="M198.488 131.004C197.982 130.752 197.475 130.496 196.854 130.187C195.775 131.109 194.786 131.95 193.796 132.794C195.439 134.89 196.55 134.447 198.894 130.8C200.719 130.999 202.544 131.194 204.446 131.401C204.685 132.067 204.932 132.754 205.18 133.44" stroke="#5C5C5C" stroke-linecap="round" stroke-linejoin="round"/>
<path d="M265.198 252.626C263.71 253.032 262.226 253.438 260.737 253.844" stroke="#5C5C5C" stroke-linecap="round" stroke-linejoin="round"/>
<path d="M102.175 119.227C101.956 120.596 101.737 121.96 101.502 123.41C103.152 125.785 106.032 125.107 108.461 125.716C111.356 126.439 114.272 127.081 117.176 127.759" stroke="#5C5C5C" stroke-linecap="round" stroke-linejoin="round"/>
<path d="M124.479 64.8116C124.682 65.0146 125.1 65.2948 125.055 65.4085C124.179 67.7882 125.298 69.8227 126.101 71.9181" stroke="#5C5C5C" stroke-linecap="round" stroke-linejoin="round"/>
<path d="M168.682 29.0761C167.396 29.1451 166.115 29.2304 164.829 29.2669C164.428 29.2791 163.941 29.2669 163.625 29.0558C161.638 27.74 159.708 26.3472 157.721 25.0315C157.25 24.7188 156.65 24.6091 156.111 24.4061" stroke="#5C5C5C" stroke-linecap="round" stroke-linejoin="round"/>
<path d="M121.438 110.902C119.779 110.277 118.116 109.656 116.048 108.876C115.785 108.421 115.322 107.487 114.718 106.655C114.483 106.33 113.935 106.228 113.53 106.025" stroke="#5C5C5C" stroke-linecap="round" stroke-linejoin="round"/>
<path d="M160.369 76.7911H156.111" stroke="#5C5C5C" stroke-linecap="round" stroke-linejoin="round"/>
<path d="M194.839 50.8016C195.719 52.1498 195.548 53.6036 195.244 55.0655" stroke="#5C5C5C" stroke-linecap="round" stroke-linejoin="round"/>
<path d="M224.645 46.1317H220.59" stroke="#5C5C5C" stroke-linecap="round" stroke-linejoin="round"/>
<path d="M110.286 113.542C111.097 113.948 111.875 114.443 112.727 114.736C113.777 115.101 114.872 115.39 115.971 115.519C116.34 115.564 116.778 115.028 117.184 114.756" stroke="#5C5C5C" stroke-linecap="round" stroke-linejoin="round"/>
<path d="M107.65 107.654C108.854 108.75 110.059 109.851 111.222 110.91C111.705 110.866 112.107 110.829 112.719 110.772V112.324" stroke="#5C5C5C" stroke-linecap="round" stroke-linejoin="round"/>
<path d="M264.59 146.232C263.239 146.772 261.885 147.316 260.535 147.856" stroke="#5C5C5C" stroke-linecap="round" stroke-linejoin="round"/>
<path d="M125.493 65.6237C125.935 67.3902 126.377 69.1567 126.807 70.8826C126.507 71.7638 126.203 72.6531 125.899 73.5424" stroke="#5C5C5C" stroke-linecap="round" stroke-linejoin="round"/>
<path d="M147.189 73.7455C146.905 74.4155 146.617 75.0855 146.232 75.9992C146.658 76.4337 147.128 76.917 147.594 77.4002" stroke="#5C5C5C" stroke-linecap="round" stroke-linejoin="round"/>
<path d="M106.636 104.811C107.784 105.895 108.935 106.975 110.083 108.06" stroke="#5C5C5C" stroke-linecap="round" stroke-linejoin="round"/>
<path d="M164.221 76.385C162.137 75.4998 161.346 75.8287 160.77 77.8063C160.669 78.1556 160.507 78.4845 160.369 78.8215" stroke="#5C5C5C" stroke-linecap="round" stroke-linejoin="round"/>
<path d="M128.535 35.7765C125.526 36.4993 122.873 37.8475 120.829 40.2434" stroke="#5C5C5C" stroke-linecap="round" stroke-linejoin="round"/>
<path d="M123.263 60.7507C123.599 61.969 123.94 63.1872 124.276 64.4055" stroke="#5C5C5C" stroke-linecap="round" stroke-linejoin="round"/>
<path d="M164.627 59.5325C162.721 61.4857 160.417 63.1385 159.76 66.0298" stroke="#5C5C5C" stroke-linecap="round" stroke-linejoin="round"/>
<path d="M205.18 57.9081C203.963 57.636 202.747 57.368 201.53 57.0959" stroke="#5C5C5C" stroke-linecap="round" stroke-linejoin="round"/>
<path d="M129.346 35.3704C130.562 35.6425 131.779 35.9105 132.995 36.1826" stroke="#5C5C5C" stroke-linecap="round" stroke-linejoin="round"/>
<path d="M112.516 126.74C112.313 127.889 112.111 129.042 111.908 130.191" stroke="#5C5C5C" stroke-linecap="round" stroke-linejoin="round"/>
<path d="M163.41 49.7864C162.599 50.8707 161.788 51.9509 160.977 53.0351" stroke="#5C5C5C" stroke-linecap="round" stroke-linejoin="round"/>
<path d="M107.447 149.48C108.124 150.565 108.797 151.645 109.475 152.729" stroke="#5C5C5C" stroke-linecap="round" stroke-linejoin="round"/>
<path d="M122.249 112.121C123.603 112.689 123.64 114.045 124.074 115.166" stroke="#5C5C5C" stroke-linecap="round" stroke-linejoin="round"/>
<path d="M194.839 55.4716C194.263 55.9752 193.687 56.4787 192.977 57.096C193.772 57.6442 194.405 58.0787 195.041 58.5173" stroke="#5C5C5C" stroke-linecap="round" stroke-linejoin="round"/>
<path d="M188.959 106.232C188.825 107.317 188.687 108.397 188.553 109.481" stroke="#5C5C5C" stroke-linecap="round" stroke-linejoin="round"/>
<path d="M107.853 106.029H103.392" stroke="#5C5C5C" stroke-linecap="round" stroke-linejoin="round"/>
<path d="M143.742 126.943C143.134 127.889 142.525 128.839 141.917 129.785" stroke="#5C5C5C" stroke-linecap="round" stroke-linejoin="round"/>
<path d="M276.553 174.049C276.959 175.742 277.364 177.431 277.77 179.125" stroke="#5C5C5C" stroke-linecap="round" stroke-linejoin="round"/>
<path d="M107.244 125.724C106.636 126.671 106.028 127.621 105.419 128.567" stroke="#5C5C5C" stroke-linecap="round" stroke-linejoin="round"/>
<path d="M188.756 52.0199C188.014 52.495 187.32 53.096 186.513 53.4128C184.733 54.1153 184.137 55.2848 184.688 57.096C184.765 57.3437 184.7 57.6361 184.7 57.9041" stroke="#5C5C5C" stroke-linecap="round" stroke-linejoin="round"/>
<path d="M127.115 71.512C128.129 71.849 129.143 72.1902 130.157 72.5272" stroke="#5C5C5C" stroke-linecap="round" stroke-linejoin="round"/>
<path d="M140.903 115.775C140.632 115.706 140.181 115.511 140.121 115.593C139.662 116.23 139.281 116.925 138.876 117.603" stroke="#5C5C5C" stroke-linecap="round" stroke-linejoin="round"/>
<path d="M147.189 138.313V136.892C149.172 137.554 150.92 138.138 152.664 138.719" stroke="#5C5C5C" stroke-linecap="round" stroke-linejoin="round"/>
<path d="M181.862 36.3856C182.198 37.3318 182.539 38.282 182.876 39.2282" stroke="#5C5C5C" stroke-linecap="round" stroke-linejoin="round"/>
<path d="M211.871 130.8C211.749 131.239 211.628 131.682 211.506 132.12C211.648 132.197 211.794 132.275 211.936 132.352C210.022 133.322 208.108 134.297 206.189 135.267" stroke="#5C5C5C" stroke-linecap="round" stroke-linejoin="round"/>
<path d="M256.885 148.668C256.954 149.614 257.019 150.565 257.088 151.511" stroke="#5C5C5C" stroke-linecap="round" stroke-linejoin="round"/>
<path d="M202.949 131.613V134.252" stroke="#5C5C5C" stroke-linecap="round" stroke-linejoin="round"/>
<path d="M141.309 119.227C141.394 118.082 141.479 116.937 141.564 115.792C141.398 115.743 141.228 115.694 141.061 115.645C140.534 116.636 140.011 117.627 139.484 118.618" stroke="#5C5C5C" stroke-linecap="round" stroke-linejoin="round"/>
<path d="M252.829 199.023C252.761 199.904 252.696 200.781 252.627 201.662" stroke="#5C5C5C" stroke-linecap="round" stroke-linejoin="round"/>
<path d="M210.452 132.222C209.665 130.415 208.424 130.528 206.591 131.475C207.37 132.38 207.998 133.115 208.627 133.846" stroke="#5C5C5C" stroke-linecap="round" stroke-linejoin="round"/>
<path d="M146.175 116.994C147.526 117.4 148.88 117.806 150.23 118.212" stroke="#5C5C5C" stroke-linecap="round" stroke-linejoin="round"/>
<path d="M101.567 126.334C100.764 127.377 99.8393 126.837 98.9309 126.537" stroke="#5C5C5C" stroke-linecap="round" stroke-linejoin="round"/>
<path d="M196.055 109.278C195.313 109.956 194.567 110.63 193.825 111.308" stroke="#5C5C5C" stroke-linecap="round" stroke-linejoin="round"/>
<path d="M115.963 112.73C116.097 113.611 116.235 114.488 116.369 115.369" stroke="#5C5C5C" stroke-linecap="round" stroke-linejoin="round"/>
<path d="M160.977 133.643C161.18 134.524 161.382 135.401 161.585 136.283" stroke="#5C5C5C" stroke-linecap="round" stroke-linejoin="round"/>
<path d="M156.516 140.343L155.3 142.78" stroke="#5C5C5C" stroke-linecap="round" stroke-linejoin="round"/>
<path d="M142.931 137.501C142.996 136.802 143.065 136.1 143.138 135.296C144.825 135.929 146.11 136.413 147.392 136.892" stroke="#5C5C5C" stroke-linecap="round" stroke-linejoin="round"/>
<path d="M128.737 32.9339C128.806 34.7613 128.871 36.5887 128.94 38.416" stroke="#5C5C5C" stroke-linecap="round" stroke-linejoin="round"/>
<path d="M192.608 132.019C191.797 132.494 190.986 132.965 190.175 133.44" stroke="#5C5C5C" stroke-linecap="round" stroke-linejoin="round"/>
<path d="M117.585 69.8877V71.5851C116.665 72.4013 115.906 73.0754 115.152 73.7455" stroke="#5C5C5C" stroke-linecap="round" stroke-linejoin="round"/>
<path d="M116.571 109.481C116.705 110.293 116.843 111.105 116.977 111.917" stroke="#5C5C5C" stroke-linecap="round" stroke-linejoin="round"/>
<path d="M163.207 133.237C163.341 134.455 163.479 135.674 163.613 136.892" stroke="#5C5C5C" stroke-linecap="round" stroke-linejoin="round"/>
<path d="M199.908 131.207C199.774 132.356 199.636 133.509 199.502 134.658" stroke="#5C5C5C" stroke-linecap="round" stroke-linejoin="round"/>
<path d="M196.664 57.502C196.935 58.3142 197.203 59.1264 197.475 59.9386" stroke="#5C5C5C" stroke-linecap="round" stroke-linejoin="round"/>
<path d="M110.488 108.466C111.02 109.509 111.551 110.557 112.111 111.654C112.824 112.583 113.583 113.57 114.341 114.557" stroke="#5C5C5C" stroke-linecap="round" stroke-linejoin="round"/>
<path d="M193.622 111.714C193.488 112.458 193.35 113.205 193.217 113.948" stroke="#5C5C5C" stroke-linecap="round" stroke-linejoin="round"/>
<path d="M117.788 109.887V111.812C117.589 111.869 117.18 111.991 116.774 112.112C116.912 112.458 117.046 112.799 117.18 113.136" stroke="#5C5C5C" stroke-linecap="round" stroke-linejoin="round"/>
<path d="M190.783 52.426C191.594 53.7133 192.406 54.9965 193.217 56.2838" stroke="#5C5C5C" stroke-linecap="round" stroke-linejoin="round"/>
<path d="M258.304 58.7203C257.627 58.6513 256.954 58.5863 256.276 58.5173" stroke="#5C5C5C" stroke-linecap="round" stroke-linejoin="round"/>
<path d="M166.046 135.064C165.592 133.546 164.882 132.474 163.001 133.022C161.192 133.55 159.355 133.98 157.53 134.455" stroke="#5C5C5C" stroke-linecap="round" stroke-linejoin="round"/>
<path d="M153.475 109.684C153.88 110.362 154.286 111.036 154.691 111.714" stroke="#5C5C5C" stroke-linecap="round" stroke-linejoin="round"/>
<path d="M190.378 112.73C190.447 113.408 190.512 114.082 190.581 114.76" stroke="#5C5C5C" stroke-linecap="round" stroke-linejoin="round"/>
<path d="M206.599 110.902C206.125 111.511 205.654 112.121 205.18 112.73" stroke="#5C5C5C" stroke-linecap="round" stroke-linejoin="round"/>
<path d="M165.032 133.846C165.101 134.524 165.166 135.198 165.235 135.877" stroke="#5C5C5C" stroke-linecap="round" stroke-linejoin="round"/>
<path d="M173.548 70.0907C172.871 70.0217 172.198 69.9567 171.521 69.8877" stroke="#5C5C5C" stroke-linecap="round" stroke-linejoin="round"/>
<path d="M284.664 304.402C283.986 304.536 283.313 304.674 282.636 304.808" stroke="#5C5C5C" stroke-linecap="round" stroke-linejoin="round"/>
<path d="M138.673 121.461C139.492 122.455 140.514 122.707 141.714 122.273" stroke="#5C5C5C" stroke-linecap="round" stroke-linejoin="round"/>
<path d="M110.286 126.334C109.544 127.483 108.797 128.636 108.055 129.785" stroke="#5C5C5C" stroke-linecap="round" stroke-linejoin="round"/>
<path d="M152.664 111.105L153.88 112.933" stroke="#5C5C5C" stroke-linecap="round" stroke-linejoin="round"/>
<path d="M110.083 76.182C109.811 76.7911 109.544 77.4002 109.272 78.0094" stroke="#5C5C5C" stroke-linecap="round" stroke-linejoin="round"/>
<path d="M153.677 29.2791C153.811 29.8882 153.949 30.4974 154.083 31.1065" stroke="#5C5C5C" stroke-linecap="round" stroke-linejoin="round"/>
<path d="M127.115 36.3856C126.989 36.9947 126.864 37.6079 126.714 38.3389C127.006 38.5947 127.367 38.9115 127.724 39.2282" stroke="#5C5C5C" stroke-linecap="round" stroke-linejoin="round"/>
<path d="M204.774 131.41C206.737 131.15 205.695 132.697 205.991 133.44" stroke="#5C5C5C" stroke-linecap="round" stroke-linejoin="round"/>
<path d="M201.733 131.41C201.461 132.019 201.193 132.628 200.922 133.237" stroke="#5C5C5C" stroke-linecap="round" stroke-linejoin="round"/>
<path d="M198.286 108.06C197.677 108.332 197.069 108.6 196.461 108.872" stroke="#5C5C5C" stroke-linecap="round" stroke-linejoin="round"/>
<path d="M100.147 124.506C100.845 125.501 101.547 126.492 102.986 126.334" stroke="#5C5C5C" stroke-linecap="round" stroke-linejoin="round"/>
<path d="M133.604 38.416C133.535 38.9561 133.47 39.5003 133.401 40.0404" stroke="#5C5C5C" stroke-linecap="round" stroke-linejoin="round"/>
<path d="M196.258 130.394C195.97 130.143 195.682 129.887 195.329 129.578C194.413 130.155 193.407 130.78 192.406 131.41" stroke="#5C5C5C" stroke-linecap="round" stroke-linejoin="round"/>
<path d="M160.369 27.2487C160.571 27.7888 160.774 28.3329 160.977 28.873" stroke="#5C5C5C" stroke-linecap="round" stroke-linejoin="round"/>
<path d="M149.622 138.11C149.419 138.991 149.217 139.868 149.014 140.75" stroke="#5C5C5C" stroke-linecap="round" stroke-linejoin="round"/>
<path d="M219.779 110.09C219.239 110.224 218.696 110.362 218.157 110.496" stroke="#5C5C5C" stroke-linecap="round" stroke-linejoin="round"/>
<path d="M167.06 57.0959C166.521 57.636 165.977 58.1802 165.438 58.7203" stroke="#5C5C5C" stroke-linecap="round" stroke-linejoin="round"/>
<path d="M193.419 128.567C192.945 128.973 192.523 129.485 191.984 129.749C191.603 129.936 191.055 129.785 190.581 129.785" stroke="#5C5C5C" stroke-linecap="round" stroke-linejoin="round"/>
<path d="M138.065 115.978C138.198 116.518 138.336 117.063 138.47 117.603" stroke="#5C5C5C" stroke-linecap="round" stroke-linejoin="round"/>
<path d="M183.687 214.251C183.147 214.32 182.604 214.385 182.065 214.454" stroke="#5C5C5C" stroke-linecap="round" stroke-linejoin="round"/>
<path d="M119.816 58.9233V60.5721C120.035 60.5436 120.25 60.5111 120.469 60.4827C120.319 59.8939 120.168 59.3091 120.018 58.7203" stroke="#5C5C5C" stroke-linecap="round" stroke-linejoin="round"/>
<path d="M119.207 128.364C118.733 128.77 118.262 129.176 117.788 129.582" stroke="#5C5C5C" stroke-linecap="round" stroke-linejoin="round"/>
<path d="M116.571 73.1364L115.76 73.9485" stroke="#5C5C5C" stroke-linecap="round" stroke-linejoin="round"/>
<path d="M155.705 113.339H154.286" stroke="#5C5C5C" stroke-linecap="round" stroke-linejoin="round"/>
<path d="M111.502 106.435C111.636 106.91 111.774 107.382 111.908 107.857" stroke="#5C5C5C" stroke-linecap="round" stroke-linejoin="round"/>
<path d="M196.055 57.0959C195.625 57.965 195.196 58.834 194.563 60.1172C194.413 59.3091 194.324 58.8137 194.23 58.3142" stroke="#5C5C5C" stroke-linecap="round" stroke-linejoin="round"/>
<path d="M147.392 117.603C147.1 118.058 146.812 118.512 146.414 119.138C145.932 118.378 145.749 118.094 145.567 117.806" stroke="#5C5C5C" stroke-linecap="round" stroke-linejoin="round"/>
<path d="M118.802 111.105C118.871 111.58 118.936 112.051 119.005 112.527" stroke="#5C5C5C" stroke-linecap="round" stroke-linejoin="round"/>
<path d="M279.189 177.094C279.055 177.569 278.917 178.04 278.783 178.516" stroke="#5C5C5C" stroke-linecap="round" stroke-linejoin="round"/>
<path d="M182.876 42.4769C182.742 42.883 182.604 43.2891 182.47 43.6952" stroke="#5C5C5C" stroke-linecap="round" stroke-linejoin="round"/>
<path d="M126.507 33.746L124.682 34.9643" stroke="#5C5C5C" stroke-linecap="round" stroke-linejoin="round"/>
<path d="M157.124 113.136C155.652 114.395 155.831 112.344 155.097 112.121" stroke="#5C5C5C" stroke-linecap="round" stroke-linejoin="round"/>
<path d="M194.23 130.597C193.882 131.109 193.533 131.625 193.192 132.128C192.474 131.678 191.931 131.341 191.392 131.003" stroke="#5C5C5C" stroke-linecap="round" stroke-linejoin="round"/>
<path d="M145.161 139.125C146.309 138.788 147.461 138.447 148.608 138.11" stroke="#5C5C5C" stroke-linecap="round" stroke-linejoin="round"/>
<path d="M148.811 139.734C148.474 139.868 148.134 140.002 147.769 140.149C147.643 139.807 147.517 139.466 147.392 139.125" stroke="#5C5C5C" stroke-linecap="round" stroke-linejoin="round"/>
<path d="M175.373 70.6998C175.037 70.6308 174.696 70.5658 174.359 70.4968" stroke="#5C5C5C" stroke-linecap="round" stroke-linejoin="round"/>
<path d="M208.424 131.207C208.558 131.544 208.696 131.885 208.829 132.222" stroke="#5C5C5C" stroke-linecap="round" stroke-linejoin="round"/>
<path d="M192.811 54.4564C194.567 53.1732 193.411 55.3863 194.028 55.4716" stroke="#5C5C5C" stroke-linecap="round" stroke-linejoin="round"/>
<path d="M110.286 111.511C110.557 111.783 110.825 112.052 111.097 112.324" stroke="#5C5C5C" stroke-linecap="round" stroke-linejoin="round"/>
<path d="M197.272 133.44C197 133.915 196.733 134.386 196.461 134.861" stroke="#5C5C5C" stroke-linecap="round" stroke-linejoin="round"/>
<path d="M123.871 47.553C123.599 47.419 123.332 47.2809 123.06 47.1469" stroke="#5C5C5C" stroke-linecap="round" stroke-linejoin="round"/>
<path d="M161.382 138.313C161.111 138.447 160.843 138.585 160.571 138.719" stroke="#5C5C5C" stroke-linecap="round" stroke-linejoin="round"/>
<path d="M167.465 115.572L167.871 115.978" stroke="#5C5C5C" stroke-linecap="round" stroke-linejoin="round"/>
</g>
<defs>
<clipPath id="clip0_9_642">
<rect width="264" height="347" fill="white" transform="translate(60 24)"/>
</clipPath>
</defs>
</svg>
